<!DOCTYPE svg PUBLIC "-//W3C//DTD SVG 20010904//EN" "http://www.w3.org/TR/2001/REC-SVG-20010904/DTD/svg10.dtd">
<svg version="1.0" xmlns="http://www.w3.org/2000/svg" width="332px" height="398px" viewBox="0 0 3320 3980" preserveAspectRatio="xMidYMid meet">
<g id="layer101" fill="#b93836" stroke="none">
<path d="M0 1990 l0 -1990 1660 0 1660 0 0 1990 0 1990 -1660 0 -1660 0 0 -1990z"/>
</g>
<g id="layer102" fill="#df2527" stroke="none">
<path d="M0 1990 l0 -1980 1660 0 1660 0 0 1980 0 1980 -1660 0 -1660 0 0 -1980z m2703 1836 c18 -7 43 -26 57 -41 l25 -27 3 -521 c2 -492 1 -524 -16 -557 -40 -75 41 -70 -1175 -70 -1198 0 -1137 -3 -1177 62 -19 32 -20 49 -20 555 l0 523 36 39 c19 22 45 42 57 44 12 2 507 5 1100 6 893 1 1083 -1 1110 -13z m-1543 -1311 l0 -35 55 0 c52 0 55 1 55 25 0 17 -8 29 -22 35 -20 8 -18 9 12 7 31 -2 35 -6 38 -32 2 -16 9 -33 15 -37 9 -6 9 -8 0 -8 -9 0 -13 -16 -13 -45 0 -45 0 -45 -35 -45 -53 0 -47 -28 8 -33 23 -2 -3 -4 -58 -4 -55 0 -81 2 -57 4 54 5 60 33 7 33 -35 0 -35 0 -35 45 0 29 -4 45 -12 46 -10 0 -10 2 0 6 6 2 12 20 12 39 0 24 5 34 15 34 10 0 15 -11 15 -35z m259 24 c32 -11 43 -39 16 -39 -8 0 -15 -7 -15 -15 0 -11 12 -15 50 -15 37 0 50 4 50 14 0 8 -10 16 -22 18 -21 3 -20 5 12 26 37 23 60 28 60 12 0 -5 -15 -14 -32 -19 -18 -5 -25 -10 -15 -10 14 -1 17 -10 17 -51 0 -27 -4 -50 -10 -50 -9 0 -15 21 -11 43 0 4 -21 7 -49 7 -47 0 -50 -2 -50 -25 0 -16 -6 -25 -15 -25 -11 0 -15 12 -15 44 0 37 4 45 23 50 21 6 20 8 -13 26 -39 21 -30 26 19 9z m655 -7 c-7 -4 -14 -18 -15 -32 -4 -24 -8 -25 -69 -25 -87 -1 -100 3 -100 30 0 13 -6 26 -12 28 -7 3 37 6 97 6 61 0 105 -3 99 -7z m-133 -91 c-7 -5 -10 -14 -7 -20 4 -6 0 -11 -8 -11 -9 0 -16 9 -16 20 0 14 7 20 23 20 16 0 18 -3 8 -9z m97 -8 c-4 -21 -28 -30 -28 -10 0 9 -6 18 -12 20 -7 3 0 6 15 6 21 1 28 -3 25 -16z m-218 -3 c0 -6 -40 -10 -100 -10 -60 0 -100 4 -100 10 0 6 40 10 100 10 60 0 100 -4 100 -10z m115 -48 c11 -3 26 -13 33 -21 11 -14 13 -14 25 -1 15 19 75 45 84 36 8 -8 9 -7 -61 -40 -40 -20 -60 -25 -65 -17 -4 6 -23 23 -42 37 -19 15 -25 23 -14 19 11 -4 29 -10 40 -13z m-535 -22 c0 -11 -6 -20 -13 -20 -7 0 -13 9 -14 20 -1 11 4 20 13 20 8 0 14 -9 14 -20z m56 0 c0 -12 -7 -20 -16 -20 -9 0 -16 8 -16 20 0 12 7 20 16 20 9 0 16 -8 16 -20z m54 0 c0 -11 -6 -20 -13 -20 -7 0 -13 9 -13 20 0 11 6 20 13 20 7 0 13 -9 13 -20z m50 0 c0 -11 -6 -20 -14 -20 -9 0 -12 7 -9 20 3 11 9 20 14 20 5 0 9 -9 9 -20z m617 -1847 c-4 -3 -10 -3 -14 0 -3 4 0 7 7 7 7 0 10 -3 7 -7z m-779 -59 c17 -14 32 -30 32 -36 0 -7 15 2 33 19 43 41 76 58 89 45 13 -13 2 -32 -19 -32 -22 0 -73 -32 -73 -47 0 -7 19 -13 48 -16 l47 -3 -52 -2 c-46 -2 -53 -5 -53 -22 0 -14 7 -20 23 -20 37 0 51 -15 44 -48 -5 -26 -3 -31 16 -35 15 -3 12 -5 -10 -6 -21 0 -33 -6 -33 -15 0 -25 -30 -27 -39 -3 -8 20 -15 23 -45 19 -21 -2 -36 -10 -36 -18 0 -33 -21 -20 -43 26 -27 56 -25 61 11 28 22 -22 24 -22 36 -5 17 23 25 22 19 -3 -4 -16 0 -20 17 -20 17 0 21 4 17 20 -7 26 1 25 30 -2 20 -19 25 -20 33 -8 5 8 10 20 10 27 0 14 -59 32 -105 34 -16 0 -39 4 -50 9 -15 7 -10 9 23 9 30 1 42 5 42 16 0 11 -13 15 -52 17 l-53 2 48 3 c66 6 61 37 -13 83 l-35 22 30 -7 c17 -4 45 -18 63 -31z m329 20 c44 -15 51 -15 95 1 47 17 78 15 78 -4 0 -5 -18 -12 -40 -16 -48 -8 -58 -20 -35 -45 24 -27 -1 -37 -29 -11 -27 25 -34 26 -58 4 -10 -9 -18 -11 -18 -6 0 6 7 16 15 23 20 16 11 28 -39 50 -51 23 -33 25 31 4z m-26 -96 c23 -13 38 -27 35 -35 -4 -9 5 -13 28 -13 19 0 36 4 38 8 5 12 65 52 77 52 24 0 9 -21 -26 -38 l-36 -17 39 -6 39 -6 -47 -2 c-51 -1 -79 -26 -56 -49 18 -18 36 -14 43 8 8 26 29 26 22 1 -4 -15 1 -21 22 -24 22 -3 21 -4 -8 -6 -19 0 -40 -9 -48 -18 -13 -17 -14 -17 -26 1 -7 11 -19 26 -27 35 -8 9 -14 24 -12 34 3 14 -5 17 -50 18 -29 1 -41 4 -25 6 35 6 34 16 -5 47 -40 32 -29 33 23 4z m-25 -99 l22 -21 12 21 c12 23 33 20 24 -4 -4 -8 3 -15 18 -18 17 -3 15 -5 -10 -6 -19 0 -35 -7 -38 -16 -10 -26 -28 -16 -46 25 -19 45 -14 50 18 19z"/>
</g>
<g id="layer103" fill="#cd6556" stroke="none">
<path d="M0 1990 l0 -1980 1660 0 1660 0 0 1980 0 1980 -1660 0 -1660 0 0 -1980z m2703 1836 c18 -7 43 -26 57 -41 l25 -27 3 -521 c2 -492 1 -524 -16 -557 -40 -75 41 -70 -1175 -70 -1198 0 -1137 -3 -1177 62 -19 32 -20 49 -20 555 l0 523 36 39 c19 22 45 42 57 44 12 2 507 5 1100 6 893 1 1083 -1 1110 -13z m-1543 -1311 l0 -35 55 0 c52 0 55 1 55 25 0 17 -8 29 -22 35 -20 8 -18 9 12 7 31 -2 35 -6 38 -32 2 -16 9 -33 15 -37 9 -6 9 -8 0 -8 -9 0 -13 -16 -13 -45 0 -45 0 -45 -35 -45 -53 0 -47 -28 8 -33 23 -2 -3 -4 -58 -4 -55 0 -81 2 -57 4 54 5 60 33 7 33 -35 0 -35 0 -35 45 0 29 -4 45 -12 46 -10 0 -10 2 0 6 6 2 12 20 12 39 0 24 5 34 15 34 10 0 15 -11 15 -35z m259 24 c32 -11 43 -39 16 -39 -8 0 -15 -7 -15 -15 0 -11 12 -15 50 -15 37 0 50 4 50 14 0 8 -10 16 -22 18 -21 3 -20 5 12 26 37 23 60 28 60 12 0 -5 -15 -14 -32 -19 -18 -5 -25 -10 -15 -10 14 -1 17 -10 17 -51 0 -27 -4 -50 -10 -50 -9 0 -15 21 -11 43 0 4 -21 7 -49 7 -47 0 -50 -2 -50 -25 0 -16 -6 -25 -15 -25 -11 0 -15 12 -15 44 0 37 4 45 23 50 21 6 20 8 -13 26 -39 21 -30 26 19 9z m655 -7 c-7 -4 -14 -18 -15 -32 -4 -24 -8 -25 -69 -25 -87 -1 -100 3 -100 30 0 13 -6 26 -12 28 -7 3 37 6 97 6 61 0 105 -3 99 -7z m-133 -91 c-7 -5 -10 -14 -7 -20 4 -6 0 -11 -8 -11 -9 0 -16 9 -16 20 0 14 7 20 23 20 16 0 18 -3 8 -9z m97 -8 c-4 -21 -28 -30 -28 -10 0 9 -6 18 -12 20 -7 3 0 6 15 6 21 1 28 -3 25 -16z m-218 -3 c0 -6 -40 -10 -100 -10 -60 0 -100 4 -100 10 0 6 40 10 100 10 60 0 100 -4 100 -10z m115 -48 c11 -3 26 -13 33 -21 11 -14 13 -14 25 -1 15 19 75 45 84 36 8 -8 9 -7 -61 -40 -40 -20 -60 -25 -65 -17 -4 6 -23 23 -42 37 -19 15 -25 23 -14 19 11 -4 29 -10 40 -13z m-535 -22 c0 -11 -6 -20 -13 -20 -7 0 -13 9 -14 20 -1 11 4 20 13 20 8 0 14 -9 14 -20z m56 0 c0 -12 -7 -20 -16 -20 -9 0 -16 8 -16 20 0 12 7 20 16 20 9 0 16 -8 16 -20z m54 0 c0 -11 -6 -20 -13 -20 -7 0 -13 9 -13 20 0 11 6 20 13 20 7 0 13 -9 13 -20z m50 0 c0 -11 -6 -20 -14 -20 -9 0 -12 7 -9 20 3 11 9 20 14 20 5 0 9 -9 9 -20z m-244 -119 c-3 -4 -7 -21 -10 -37 -3 -16 -10 -53 -16 -82 -13 -71 -7 -370 8 -399 7 -12 12 -40 12 -62 0 -23 5 -41 10 -41 6 0 10 -16 10 -35 0 -19 5 -35 10 -35 6 0 10 -12 10 -27 0 -33 21 -97 55 -171 14 -29 25 -55 25 -57 0 -7 91 -160 99 -165 9 -6 51 -67 51 -73 0 -20 -207 -24 -285 -6 -92 22 -222 98 -291 171 -58 62 -137 198 -137 236 0 6 -4 12 -8 12 -13 0 -22 83 -20 200 2 137 3 140 10 140 4 0 7 10 9 23 2 26 63 146 100 197 34 46 95 110 105 110 5 0 27 13 50 28 37 25 129 67 149 67 3 0 9 2 12 5 8 9 47 10 42 1z m497 -99 c4 -1 25 -5 47 -8 22 -4 40 -10 40 -15 0 -5 3 -8 8 -7 4 1 17 -3 30 -10 12 -7 22 -9 22 -5 0 4 4 3 8 -3 4 -6 24 -20 44 -31 20 -11 52 -33 70 -49 44 -39 118 -129 118 -143 0 -6 4 -11 8 -11 9 0 48 -84 58 -127 4 -15 11 -31 16 -34 5 -3 11 -57 13 -120 4 -121 -8 -198 -45 -283 -10 -25 -17 -46 -14 -46 3 0 -8 -18 -25 -39 -17 -21 -31 -42 -31 -45 0 -9 -111 -118 -136 -133 -68 -43 -109 -62 -153 -74 -27 -7 -48 -16 -46 -19 2 -4 -20 -7 -49 -8 -51 0 -53 1 -48 24 2 13 7 24 11 24 9 0 35 89 46 160 2 14 6 39 9 55 27 162 11 404 -40 595 -8 30 -20 74 -25 98 -6 23 -16 42 -21 42 -6 0 -9 2 -6 6 7 7 -45 116 -82 170 l-27 40 46 3 c25 1 47 3 48 5 3 2 88 -7 106 -12z m364 -1629 c-4 -3 -10 -3 -14 0 -3 4 0 7 7 7 7 0 10 -3 7 -7z m-779 -59 c17 -14 32 -30 32 -36 0 -7 15 2 33 19 43 41 76 58 89 45 13 -13 2 -32 -19 -32 -22 0 -73 -32 -73 -47 0 -7 19 -13 48 -16 l47 -3 -52 -2 c-46 -2 -53 -5 -53 -22 0 -14 7 -20 23 -20 37 0 51 -15 44 -48 -5 -26 -3 -31 16 -35 15 -3 12 -5 -10 -6 -21 0 -33 -6 -33 -15 0 -25 -30 -27 -39 -3 -8 20 -15 23 -45 19 -21 -2 -36 -10 -36 -18 0 -33 -21 -20 -43 26 -27 56 -25 61 11 28 22 -22 24 -22 36 -5 17 23 25 22 19 -3 -4 -16 0 -20 17 -20 17 0 21 4 17 20 -7 26 1 25 30 -2 20 -19 25 -20 33 -8 5 8 10 20 10 27 0 14 -59 32 -105 34 -16 0 -39 4 -50 9 -15 7 -10 9 23 9 30 1 42 5 42 16 0 11 -13 15 -52 17 l-53 2 48 3 c66 6 61 37 -13 83 l-35 22 30 -7 c17 -4 45 -18 63 -31z m329 20 c44 -15 51 -15 95 1 47 17 78 15 78 -4 0 -5 -18 -12 -40 -16 -48 -8 -58 -20 -35 -45 24 -27 -1 -37 -29 -11 -27 25 -34 26 -58 4 -10 -9 -18 -11 -18 -6 0 6 7 16 15 23 20 16 11 28 -39 50 -51 23 -33 25 31 4z m-26 -96 c23 -13 38 -27 35 -35 -4 -9 5 -13 28 -13 19 0 36 4 38 8 5 12 65 52 77 52 24 0 9 -21 -26 -38 l-36 -17 39 -6 39 -6 -47 -2 c-51 -1 -79 -26 -56 -49 18 -18 36 -14 43 8 8 26 29 26 22 1 -4 -15 1 -21 22 -24 22 -3 21 -4 -8 -6 -19 0 -40 -9 -48 -18 -13 -17 -14 -17 -26 1 -7 11 -19 26 -27 35 -8 9 -14 24 -12 34 3 14 -5 17 -50 18 -29 1 -41 4 -25 6 35 6 34 16 -5 47 -40 32 -29 33 23 4z m-25 -99 l22 -21 12 21 c12 23 33 20 24 -4 -4 -8 3 -15 18 -18 17 -3 15 -5 -10 -6 -19 0 -35 -7 -38 -16 -10 -26 -28 -16 -46 25 -19 45 -14 50 18 19z"/>
<path d="M469 3805 c-59 -32 -59 -35 -59 -588 l0 -504 23 -34 c13 -19 38 -39 57 -46 46 -16 2146 -18 2202 -2 26 7 46 22 63 47 l25 37 0 513 0 514 -39 39 -39 39 -1103 0 c-935 -1 -1108 -3 -1130 -15z m171 -253 c4 -62 2 -82 -7 -82 -9 0 -13 22 -13 75 0 60 -3 76 -17 85 -16 9 -15 10 7 8 24 -3 25 -6 30 -86z m94 15 c5 -73 -9 -94 -16 -25 -4 43 1 102 8 95 3 -2 6 -34 8 -70z m114 41 c5 -18 7 -37 4 -43 -3 -5 -6 -20 -6 -34 -1 -13 -6 -26 -12 -28 -7 -2 -10 17 -8 54 1 32 -3 64 -8 71 -8 8 -6 12 5 12 10 0 20 -13 25 -32z m74 -3 c-6 -34 -12 -32 -12 6 0 16 4 28 9 25 4 -3 6 -17 3 -31z m528 -11 c-16 -19 -30 -44 -30 -54 0 -11 -4 -20 -10 -20 -5 0 -10 10 -10 23 0 12 -10 38 -21 57 l-21 35 31 -29 c17 -16 32 -28 34 -25 2 2 11 17 20 32 10 15 22 25 28 22 5 -4 -4 -22 -21 -41z m82 11 c-6 -34 -12 -32 -12 6 0 16 4 28 9 25 4 -3 6 -17 3 -31z m38 -1 c0 -13 -4 -24 -10 -24 -5 0 -10 14 -10 31 0 17 4 28 10 24 6 -3 10 -17 10 -31z m42 -41 c-10 -29 -22 -10 -21 35 l1 47 12 -35 c7 -19 11 -41 8 -47z m56 29 c2 -25 -1 -42 -7 -42 -6 0 -11 3 -12 8 -5 49 -2 81 6 79 6 -2 11 -22 13 -45z m92 7 c0 -32 14 -38 29 -11 13 21 13 19 15 -41 0 -26 -2 -47 -6 -47 -5 0 -8 14 -8 31 0 20 -4 29 -12 26 -7 -2 -12 -16 -11 -31 1 -14 -2 -26 -8 -26 -5 0 -9 -7 -9 -15 0 -8 -4 -15 -9 -15 -5 0 -4 13 2 29 9 25 8 33 -8 50 -10 12 -13 21 -7 21 7 0 12 15 12 36 0 21 4 33 10 29 6 -3 10 -19 10 -36z m82 -35 c3 -74 -3 -117 -14 -98 -10 16 -9 174 1 174 5 0 11 -34 13 -76z m236 -12 c2 -52 -1 -82 -8 -82 -11 0 -13 16 -10 99 1 35 -3 57 -12 63 -9 7 -8 8 7 6 18 -3 20 -12 23 -86z m77 78 c9 -14 10 -148 2 -156 -12 -13 -20 5 -19 41 1 19 -3 37 -9 40 -7 5 -6 12 2 21 6 8 9 25 7 39 -5 25 5 34 17 15z m59 -27 c-2 -41 -3 -43 -14 -43 -11 0 -14 63 -4 73 12 12 20 -1 18 -30z m66 -3 c0 -22 -4 -40 -10 -40 -5 0 -10 18 -10 40 0 22 5 40 10 40 6 0 10 -18 10 -40z m140 -22 c4 -48 2 -58 -10 -58 -12 0 -14 10 -11 47 3 37 -1 50 -15 61 -18 13 -17 13 6 10 23 -3 25 -8 30 -60z m-1460 27 c0 -14 -4 -25 -8 -25 -7 0 -8 31 -3 48 4 11 11 -3 11 -23z m41 -12 c6 -17 6 -30 -2 -39 -16 -19 -4 -44 21 -44 15 0 20 7 20 25 0 14 -5 25 -11 25 -6 0 -9 14 -7 33 2 24 8 33 26 35 12 2 22 -1 22 -7 0 -6 -7 -8 -15 -5 -11 5 -15 -1 -15 -25 0 -17 5 -31 10 -31 6 0 10 -11 10 -25 0 -14 -5 -25 -10 -25 -6 0 -8 -11 -4 -26 5 -19 4 -25 -5 -20 -6 4 -11 14 -11 22 0 20 -30 17 -31 -3 0 -10 -5 -4 -10 12 -5 17 -7 47 -3 68 4 25 1 43 -8 54 -10 13 -10 15 0 9 7 -4 18 -19 23 -33z m1023 -70 c2 -75 -10 -66 -19 14 -4 36 -9 74 -12 82 -2 9 3 3 13 -13 9 -16 17 -53 18 -83z m-685 70 c13 -28 13 -28 -8 -9 -22 20 -27 36 -13 36 5 0 14 -12 21 -27z m1031 -36 c-1 -13 -26 16 -41 48 -7 13 -1 10 15 -8 14 -15 26 -33 26 -40z m-430 43 c0 -5 11 -10 24 -10 23 0 24 -3 24 -55 0 -30 -5 -55 -9 -55 -10 0 -13 28 -10 73 2 19 -2 27 -13 27 -13 0 -16 -12 -16 -55 0 -30 -4 -55 -10 -55 -6 0 -10 30 -10 70 0 40 4 70 10 70 6 0 10 -4 10 -10z m550 2 c0 -5 -9 -17 -21 -28 -21 -19 -21 -19 -8 9 12 26 29 37 29 19z m-1950 -13 c0 -7 10 -9 25 -5 24 6 25 4 25 -34 0 -27 -4 -40 -13 -40 -9 0 -12 10 -9 30 3 23 0 30 -12 30 -11 0 -16 -9 -16 -30 0 -16 -4 -30 -10 -30 -5 0 -10 20 -10 45 0 25 5 45 10 45 6 0 10 -5 10 -11z m1340 -44 c0 -25 -4 -45 -9 -45 -9 0 -20 77 -12 86 14 13 21 -1 21 -41z m-1085 -20 c0 -35 -4 -55 -12 -55 -14 0 -19 23 -15 72 6 60 27 47 27 -17z m675 -16 c0 -4 -4 -11 -10 -14 -5 -3 -10 0 -10 9 0 8 -3 23 -6 33 -5 16 -4 16 10 -1 9 -11 16 -23 16 -27z m-73 -29 c3 -33 -13 -23 -25 16 -10 34 -10 35 6 20 10 -8 18 -24 19 -36z m245 20 c-4 -28 -21 -52 -23 -33 -7 53 -5 63 11 63 13 0 16 -7 12 -30z m638 22 c0 -4 -16 -6 -35 -4 -21 3 -35 0 -35 -7 0 -6 5 -11 11 -11 6 0 4 -7 -5 -15 -8 -8 -17 -15 -20 -15 -8 0 -7 45 1 53 9 10 83 9 83 -1z m-930 -11 c0 -12 -20 -25 -27 -18 -7 7 6 27 18 27 5 0 9 -4 9 -9z m-406 -26 c-4 -8 -9 -15 -13 -15 -4 0 -8 7 -8 15 0 8 6 15 13 15 8 0 11 -6 8 -15z m616 11 c0 -2 -7 -9 -15 -16 -12 -10 -15 -10 -15 4 0 9 7 16 15 16 8 0 15 -2 15 -4z m705 -16 c3 -5 2 -10 -4 -10 -5 0 -13 5 -16 10 -3 6 -2 10 4 10 5 0 13 -4 16 -10z m-1735 -244 c0 -40 4 -55 16 -60 36 -14 43 -7 46 49 4 76 22 74 26 -2 2 -35 7 -63 12 -63 6 0 10 -9 10 -20 0 -11 -7 -20 -16 -20 -11 0 -14 6 -9 20 6 18 2 20 -35 20 -32 0 -42 -4 -48 -21 -7 -18 -10 -16 -25 17 -17 34 -17 37 -1 48 12 9 15 23 12 49 -2 20 0 37 4 37 4 0 8 -24 8 -54z m210 7 c0 -32 7 -56 20 -73 21 -26 26 -50 11 -50 -13 0 -35 30 -36 51 -1 10 -10 28 -20 39 -10 11 -13 20 -7 20 7 0 12 14 12 30 0 17 5 30 10 30 6 0 10 -21 10 -47z m81 -50 c-4 -27 -21 -31 -22 -5 0 9 -1 34 -2 55 -1 20 3 39 8 40 11 4 22 -56 16 -90z m130 80 c1 -10 1 -26 0 -35 -1 -10 3 -18 8 -18 6 0 11 -6 11 -14 0 -8 4 -17 9 -20 15 -10 41 5 39 22 -3 41 3 82 12 82 6 0 10 -22 10 -50 0 -36 5 -52 17 -59 17 -9 16 -12 -6 -35 -30 -32 -35 -32 -49 -1 -7 15 -20 25 -32 25 -11 0 -20 5 -20 10 0 6 -8 10 -17 10 -17 -1 -17 -1 0 -14 18 -14 24 -56 7 -56 -10 0 -14 14 -11 38 1 6 -3 12 -9 12 -5 0 -10 12 -9 28 0 15 3 21 6 15 6 -15 33 -17 33 -3 0 6 -4 10 -10 10 -5 0 -10 7 -10 15 0 8 -6 15 -12 16 -10 0 -10 2 0 6 6 2 12 11 12 19 0 20 20 17 21 -3z m249 -118 c-4 -17 -5 -18 -8 -2 -4 21 -22 23 -22 2 0 -10 -10 -15 -30 -15 l-30 0 0 66 c0 58 2 65 15 54 12 -10 18 -10 30 0 13 11 15 6 15 -34 0 -67 20 -57 22 12 l1 57 6 -60 c3 -33 4 -69 1 -80z m57 48 c-5 -55 -16 -83 -18 -47 -1 10 -1 22 0 27 0 4 -3 7 -9 7 -5 0 -10 16 -10 35 0 19 5 35 10 35 6 0 10 8 10 18 1 16 2 15 11 -2 6 -10 9 -42 6 -73z m223 72 c0 -9 -6 -12 -15 -9 -23 9 -28 -20 -10 -55 14 -27 14 -31 0 -31 -8 0 -15 8 -15 18 -1 16 -1 16 -11 -1 -6 -10 -8 -25 -5 -33 7 -17 -3 -44 -16 -44 -5 0 -7 27 -2 69 6 61 4 70 -12 80 -17 10 -16 10 7 5 15 -3 30 -1 33 5 10 16 46 13 46 -4z m90 -19 c0 -28 6 -38 35 -56 30 -19 55 -47 55 -63 0 -3 -9 -3 -20 0 -10 3 -18 10 -17 15 1 6 -4 13 -10 15 -8 3 -13 -5 -13 -21 0 -27 -15 -43 -23 -23 -2 6 -3 27 -2 45 1 22 -4 36 -15 42 -12 6 -15 18 -12 44 5 46 22 47 22 2z m90 0 c0 -19 -4 -38 -10 -41 -10 -6 -12 3 -12 45 0 28 1 30 12 30 6 0 10 -15 10 -34z m98 4 c-1 -39 6 -45 26 -25 9 9 16 15 17 13 5 -20 3 -98 -3 -98 -4 0 -8 14 -8 30 0 21 -5 30 -16 30 -12 0 -15 -6 -10 -25 5 -18 0 -32 -15 -48 l-21 -22 13 28 c10 21 10 33 2 46 -12 20 -6 101 8 101 4 0 7 -14 7 -30z m82 -61 c0 -50 -4 -88 -9 -85 -13 8 -14 176 -1 176 6 0 10 -36 10 -91z m177 22 c4 -31 10 -41 24 -41 16 0 19 8 19 49 0 30 -5 51 -12 54 -7 3 -3 6 10 6 21 1 22 -2 22 -84 0 -50 -4 -85 -10 -85 -5 0 -10 11 -10 25 0 18 -5 25 -20 25 -15 0 -20 -7 -20 -27 0 -46 -8 -21 -15 46 -3 36 -11 74 -17 85 -10 20 -9 20 7 5 9 -9 19 -35 22 -58z m273 64 c0 -2 -15 -11 -34 -20 -53 -25 -55 -74 -4 -75 12 0 15 -6 10 -22 -9 -36 -30 -52 -47 -38 -8 7 -12 16 -9 22 3 5 11 4 20 -3 11 -9 15 -8 20 5 9 23 6 24 -57 35 -30 5 -42 9 -26 10 25 1 27 4 21 29 -4 15 -11 33 -17 40 -6 8 -6 12 2 12 6 0 14 -7 17 -15 8 -20 21 -19 51 5 23 18 53 27 53 15z m94 -43 c28 -55 29 -72 6 -72 -17 0 -20 -4 -15 -20 11 -36 -11 -21 -25 18 -8 20 -17 41 -19 46 -2 5 1 6 7 2 6 -3 15 2 21 11 7 14 4 24 -12 42 l-22 24 22 -12 c13 -6 29 -24 37 -39z m103 18 c1 -14 0 -18 -3 -7 -3 9 -14 17 -25 17 -30 0 -26 -53 6 -70 13 -7 22 -17 19 -22 -4 -6 -11 -5 -17 1 -17 17 -27 13 -27 -9 0 -11 -4 -20 -10 -20 -15 0 -13 127 3 134 28 11 52 1 54 -24z m-1127 4 c14 -8 17 -13 7 -10 -10 3 -27 6 -38 6 -10 0 -19 5 -19 10 0 14 21 12 50 -6z m582 -44 c-3 -23 0 -30 12 -30 11 0 16 9 16 26 0 14 4 22 10 19 5 -3 8 -26 6 -51 -4 -50 -16 -73 -16 -31 0 17 -5 27 -15 27 -9 0 -15 -9 -15 -25 0 -14 -4 -25 -10 -25 -6 0 -10 30 -10 71 0 58 2 69 13 60 8 -6 12 -23 9 -41z m-63 -19 c-3 -45 -11 -60 -19 -37 -8 25 0 87 12 80 5 -3 8 -22 7 -43z m-1309 19 c0 -11 -4 -20 -10 -20 -5 0 -10 9 -10 20 0 11 5 20 10 20 6 0 10 -9 10 -20z m80 0 c0 -11 -4 -20 -10 -20 -5 0 -10 9 -10 20 0 11 5 20 10 20 6 0 10 -9 10 -20z m690 -10 c0 -16 -4 -30 -10 -30 -5 0 -10 14 -10 30 0 17 5 30 10 30 6 0 10 -13 10 -30z m40 -5 c0 -14 -4 -25 -9 -25 -4 0 -6 11 -3 25 2 14 6 25 8 25 2 0 4 -11 4 -25z m1250 -4 c0 -12 -20 -25 -27 -18 -7 7 6 27 18 27 5 0 9 -4 9 -9z m-459 -40 c7 12 9 12 9 -1 -1 -8 -7 -24 -15 -34 -14 -18 -15 -18 -25 8 -14 37 -13 41 6 25 13 -10 17 -10 25 2z m-701 -15 c0 -2 -7 -9 -15 -16 -12 -10 -15 -10 -15 4 0 9 7 16 15 16 8 0 15 -2 15 -4z m-875 -16 c3 -5 -1 -10 -9 -10 -9 0 -16 5 -16 10 0 6 4 10 9 10 6 0 13 -4 16 -10z m635 0 c0 -5 -4 -10 -10 -10 -5 0 -10 5 -10 10 0 6 5 10 10 10 6 0 10 -4 10 -10z m1187 -6 c-3 -3 -12 -4 -19 -1 -8 3 -5 6 6 6 11 1 17 -2 13 -5z m60 0 c-3 -3 -12 -4 -19 -1 -8 3 -5 6 6 6 11 1 17 -2 13 -5z m-1886 -201 c1 -16 1 -36 0 -45 -1 -10 3 -18 8 -18 6 0 11 6 11 13 0 14 29 40 48 45 19 3 14 -5 -22 -46 -19 -20 -36 -51 -38 -67 -3 -29 -33 -45 -33 -18 0 6 -3 15 -7 19 -5 4 -8 15 -8 24 0 10 -9 29 -20 43 -11 14 -16 28 -11 31 5 4 12 -2 16 -13 3 -11 13 -22 21 -25 12 -4 15 -2 10 9 -7 20 4 75 15 75 5 0 10 -12 10 -27z m149 -8 c0 -24 5 -35 15 -35 8 0 15 5 15 10 0 6 5 10 10 10 6 0 10 -22 10 -50 0 -27 -4 -50 -10 -50 -5 0 -10 16 -10 36 0 31 -2 35 -15 24 -8 -7 -12 -16 -9 -21 7 -12 -18 -69 -30 -69 -4 0 -1 12 9 26 16 25 16 28 -4 54 -13 19 -16 30 -9 32 6 2 11 18 11 36 0 18 4 32 9 32 4 0 8 -16 8 -35z m85 -16 c1 -24 9 -45 15 -47 9 -3 11 2 7 17 -3 11 -1 24 4 27 5 3 9 -17 9 -44 0 -42 -3 -51 -21 -55 -12 -3 -18 -10 -14 -16 3 -6 1 -11 -4 -11 -12 0 -13 6 -13 75 0 83 2 108 8 103 3 -4 7 -26 9 -49z m161 26 c18 -27 29 -145 13 -145 -5 0 -9 25 -9 55 0 31 -7 69 -15 85 -19 37 -12 39 11 5z m74 -60 c0 -47 -4 -85 -8 -85 -5 0 -8 32 -7 71 2 50 -2 75 -12 85 -13 12 -12 14 6 14 20 0 21 -6 21 -85z m81 58 c4 -96 1 -119 -10 -107 -17 17 -17 134 -1 134 6 0 10 -12 11 -27z m111 -1 c6 -39 -2 -112 -12 -112 -5 0 -7 27 -5 60 2 48 0 62 -13 70 -15 8 -14 9 4 10 16 0 23 -7 26 -28z m708 -7 c0 -24 5 -35 15 -35 8 0 15 5 15 10 0 6 5 10 11 10 5 0 9 -10 7 -22 -2 -11 3 -23 11 -26 10 -3 12 1 9 16 -3 11 -2 36 2 54 l8 33 2 -30 c8 -132 5 -169 -11 -143 -5 7 -6 20 -3 30 2 9 0 19 -6 23 -6 3 -10 -3 -10 -15 0 -12 -4 -18 -10 -15 -5 3 -10 17 -10 31 0 15 -6 24 -15 24 -17 0 -18 -5 -7 -28 6 -12 2 -24 -14 -40 l-23 -24 11 36 c10 30 9 39 -7 56 -10 11 -13 20 -7 20 7 0 12 15 12 35 0 19 5 35 10 35 6 0 10 -16 10 -35z m318 -58 c2 -53 -1 -86 -6 -83 -6 3 -9 36 -8 72 1 42 -4 74 -13 86 -12 18 -12 20 5 16 17 -3 19 -14 22 -91z m192 46 c0 -24 -4 -43 -10 -43 -5 0 -10 16 -10 35 0 33 -2 35 -35 35 -33 0 -35 -2 -35 -35 0 -19 5 -35 10 -35 6 0 9 -3 8 -7 -4 -19 27 -63 51 -72 20 -8 12 -9 -34 -4 -61 6 -86 13 -47 13 19 0 20 3 11 28 -6 15 -20 37 -32 50 -15 16 -17 23 -7 20 10 -2 16 6 18 27 3 29 4 30 57 30 l55 0 0 -42z m152 -30 l3 -78 35 -6 c21 -4 2 -6 -50 -6 -47 0 -68 2 -47 4 20 2 37 6 37 9 0 11 -23 50 -44 73 l-21 25 27 -17 c15 -9 30 -17 33 -17 3 0 5 20 5 45 0 77 19 49 22 -32z m-1183 50 c0 -11 -3 -13 -6 -5 -2 6 -17 12 -33 12 -22 0 -31 -6 -38 -27 l-10 -28 -1 33 c-1 31 0 32 44 32 36 0 45 -3 44 -17z m91 1 c0 -8 -5 -12 -10 -9 -6 4 -8 11 -5 16 9 14 15 11 15 -7z m110 8 c0 -4 -16 -6 -35 -4 -30 4 -35 1 -35 -17 0 -12 -4 -21 -10 -21 -5 0 -10 11 -10 25 0 23 4 25 45 25 25 0 45 -4 45 -8z m570 -19 c14 -29 21 -133 10 -133 -4 0 -10 29 -12 65 -3 36 -11 72 -18 80 -7 8 -8 15 -3 15 5 0 16 -12 23 -27z m-885 7 c3 -5 4 -10 1 -10 -3 0 -8 5 -11 10 -3 6 -4 10 -1 10 3 0 8 -4 11 -10z m155 6 c0 -2 -7 -9 -15 -16 -13 -11 -14 -10 -9 4 5 14 24 23 24 12z m200 -5 c0 -6 -4 -13 -10 -16 -5 -3 -10 1 -10 9 0 9 5 16 10 16 6 0 10 -4 10 -9z m-755 -71 c-3 -47 -1 -60 11 -60 10 0 14 13 14 49 0 28 5 53 10 56 6 4 10 -17 10 -54 l0 -61 -30 0 -30 0 0 71 c0 41 4 68 9 64 5 -3 8 -32 6 -65z m1218 -6 c-3 -43 -1 -54 12 -54 11 0 15 12 15 50 0 28 5 50 10 50 6 0 10 -25 10 -55 0 -54 0 -55 -30 -55 l-30 0 0 73 c0 42 4 67 9 59 4 -7 6 -38 4 -68z m-733 56 c0 -5 -5 -10 -11 -10 -5 0 -7 5 -4 10 3 6 8 10 11 10 2 0 4 -4 4 -10z m197 -7 c-4 -3 -7 0 -7 7 0 7 3 10 7 7 3 -4 3 -10 0 -14z m473 -43 c0 -27 -4 -50 -8 -50 -5 0 -9 23 -9 50 -1 28 3 50 8 50 5 0 9 -22 9 -50z m-880 -15 c0 -37 -4 -55 -12 -55 -9 0 -13 18 -13 55 0 38 4 55 12 55 9 0 13 -17 13 -55z m1490 48 c0 -10 -32 -43 -42 -43 -5 0 -1 11 8 25 15 23 34 33 34 18z m-870 -13 c0 -9 -32 -30 -46 -30 -4 0 1 9 11 20 19 21 35 26 35 10z m-460 -15 c0 -8 6 -15 14 -15 8 0 16 7 20 15 11 29 21 15 21 -30 0 -46 -17 -58 -23 -16 -5 30 -26 21 -30 -12 -4 -35 -20 -35 -28 1 -3 15 -7 31 -8 37 -3 11 15 34 27 35 4 0 7 -7 7 -15z m102 -34 c-2 -23 -7 -41 -11 -41 -5 0 -6 14 -2 78 1 7 5 11 9 8 4 -2 6 -23 4 -45z m98 34 c0 -8 7 -15 15 -15 9 0 18 7 21 15 11 28 19 15 19 -30 0 -26 -4 -44 -10 -42 -5 2 -10 12 -10 22 0 32 -22 27 -29 -7 -7 -31 -8 -32 -21 -14 -8 11 -15 27 -15 36 0 9 -6 22 -12 30 -11 12 -10 12 5 1 15 -12 21 -9 18 12 0 4 4 7 9 7 6 0 10 -7 10 -15z m110 -36 c0 -21 -4 -39 -10 -39 -5 0 -10 21 -10 46 0 27 4 43 10 39 6 -3 10 -24 10 -46z"/>
<path d="M1000 3171 c0 -5 7 -14 16 -22 13 -10 17 -10 25 2 14 23 11 29 -16 29 -14 0 -25 -4 -25 -9z"/>
<path d="M1123 3195 c0 -27 2 -38 4 -22 2 15 2 37 0 50 -2 12 -4 0 -4 -28z"/>
<path d="M2355 3211 c-8 -15 3 -31 21 -31 9 0 14 7 12 17 -4 20 -24 28 -33 14z"/>
<path d="M827 2834 c-8 -8 1 -24 14 -24 5 0 9 7 9 15 0 15 -12 20 -23 9z"/>
<path d="M1162 2430 c0 -31 4 -40 18 -40 14 0 18 9 18 40 1 33 -3 40 -18 40 -15 0 -19 -7 -18 -40z"/>
<path d="M1232 2430 c0 -31 4 -40 18 -40 14 0 18 9 18 40 1 33 -3 40 -18 40 -15 0 -19 -7 -18 -40z"/>
<path d="M1920 2505 c0 -14 5 -25 10 -25 6 0 10 11 10 25 0 14 -4 25 -10 25 -5 0 -10 -11 -10 -25z"/>
<path d="M1960 2504 c0 -31 23 -28 28 4 2 15 -2 22 -12 22 -11 0 -16 -9 -16 -26z"/>
<path d="M2010 2505 c0 -14 4 -25 9 -25 12 0 19 21 13 38 -8 21 -22 13 -22 -13z"/>
</g>
<g id="layer104" fill="#dc9076" stroke="none">
<path d="M0 1990 l0 -1980 1660 0 1660 0 0 1980 0 1980 -1660 0 -1660 0 0 -1980z m2714 1836 c18 -7 44 -29 57 -47 l24 -34 3 -497 c2 -319 -1 -511 -7 -536 -6 -21 -25 -51 -41 -67 l-31 -30 -1124 0 -1124 0 -31 30 c-16 16 -35 46 -41 67 -6 24 -9 220 -7 537 3 487 4 500 24 528 11 15 36 36 55 45 32 17 106 18 1122 18 905 0 1093 -2 1121 -14z m-1426 -1278 c7 -7 12 -22 12 -35 0 -13 7 -26 15 -29 14 -6 14 -8 1 -18 -8 -6 -16 -29 -18 -51 -3 -37 -5 -40 -32 -40 -16 -1 -31 -6 -34 -13 -2 -8 11 -12 43 -12 28 0 44 -4 40 -10 -3 -6 -48 -10 -100 -10 -52 0 -97 4 -100 10 -4 6 12 10 39 10 54 0 61 15 11 24 -33 7 -35 9 -35 46 0 21 -5 40 -12 43 -10 4 -10 7 0 18 6 7 12 26 12 41 0 41 28 37 32 -4 3 -32 4 -33 53 -33 44 0 50 3 53 22 2 15 -4 23 -19 28 -17 6 -19 9 -8 16 19 12 33 11 47 -3z m158 -23 c12 -16 44 -21 44 -6 0 16 70 35 82 23 8 -8 3 -13 -16 -18 -20 -5 -24 -9 -16 -19 6 -8 10 -33 8 -57 l-3 -43 -75 0 -75 0 -3 52 c-2 43 0 52 15 55 14 4 10 8 -17 21 l-35 17 40 -5 c22 -2 45 -11 51 -20z m634 15 c0 -5 -4 -10 -10 -10 -5 0 -10 -13 -10 -30 l0 -30 -85 0 -85 0 0 30 c0 21 -5 30 -16 30 -8 0 -12 5 -9 10 3 6 52 10 111 10 63 0 104 -4 104 -10z m-45 -110 c0 -24 -3 -25 -58 -25 -31 0 -57 -4 -57 -9 0 -9 116 -3 141 8 10 5 19 2 22 -8 4 -11 -4 -18 -30 -25 -20 -6 -46 -20 -59 -32 l-23 -22 -41 37 c-22 20 -45 36 -50 36 -6 0 -10 5 -10 11 0 6 9 8 20 4 17 -5 20 -2 20 22 0 29 0 29 63 28 59 -1 62 -2 62 -25z m-205 0 c0 -6 -43 -10 -110 -10 -67 0 -110 4 -110 10 0 6 43 10 110 10 67 0 110 -4 110 -10z m-265 -70 c0 -25 0 -25 -95 -25 l-95 0 -3 28 -3 28 98 -3 c97 -3 98 -3 98 -28z m-249 -127 c-30 -100 -43 -293 -27 -418 14 -109 36 -223 50 -260 5 -11 14 -42 20 -70 27 -114 133 -316 207 -396 13 -14 24 -28 24 -31 0 -4 -26 -12 -57 -19 -119 -24 -295 10 -396 78 -27 18 -53 33 -57 33 -4 0 -37 31 -74 70 -124 132 -186 307 -173 485 9 108 24 157 80 256 73 132 162 208 312 265 75 29 98 30 91 7z m544 -97 c167 -47 329 -195 391 -356 11 -30 26 -66 32 -79 7 -15 12 -77 12 -160 0 -124 -3 -143 -29 -216 -16 -44 -43 -100 -60 -125 -75 -111 -188 -203 -289 -236 -29 -9 -56 -20 -61 -25 -6 -5 -34 -9 -63 -9 -57 0 -57 -1 -28 65 8 17 23 80 36 140 62 315 -3 722 -155 958 l-35 56 52 3 c57 3 158 -5 197 -16z m260 -1543 c0 -5 -232 -7 -516 -5 -379 2 -520 0 -530 -9 -14 -11 -20 1 -7 14 9 10 1053 9 1053 0z m-1070 -63 c-6 -11 -18 -20 -26 -20 -12 0 -10 5 7 20 30 25 32 25 19 0z m1040 3 c0 -13 -3 -14 -8 -6 -6 10 -121 13 -498 16 l-489 2 498 3 c468 2 497 1 497 -15z m90 -178 c0 -149 -1 -161 -20 -173 -11 -7 -20 -8 -20 -3 0 5 7 11 15 15 12 4 15 32 15 160 0 127 -3 155 -15 160 -8 3 -15 10 -15 16 0 6 7 5 20 -2 19 -12 20 -24 20 -173z m-1090 140 c-7 -8 -18 -15 -24 -15 -6 0 -2 7 8 15 25 19 32 19 16 0z m1040 -15 c0 -6 -9 -2 -20 7 -11 10 -20 19 -20 21 0 1 9 -2 20 -8 11 -6 20 -15 20 -20z m-724 -32 l31 -29 30 30 c36 35 81 50 93 30 12 -18 5 -25 -28 -32 -15 -3 -39 -15 -53 -26 l-24 -20 47 -1 c26 0 50 -4 53 -10 4 -6 -15 -10 -50 -10 -48 0 -56 -3 -53 -17 2 -12 15 -20 38 -23 36 -5 40 -14 26 -57 -6 -18 -2 -22 21 -26 26 -4 25 -4 -5 -6 -25 -1 -35 -6 -39 -21 -7 -26 -39 -26 -46 0 -4 14 -14 20 -35 20 -21 0 -31 -6 -35 -20 -9 -35 -32 -22 -55 32 -25 59 -20 75 12 36 24 -31 36 -35 36 -14 0 18 17 29 30 21 8 -5 7 -11 -1 -21 -9 -11 -7 -14 10 -14 19 0 21 4 15 23 l-6 22 24 -22 c28 -27 44 -29 52 -8 7 20 -28 34 -106 42 -71 7 -87 23 -23 23 66 0 54 23 -16 30 -32 4 -48 9 -39 13 8 4 30 5 48 3 18 -2 35 0 37 4 8 13 -33 57 -65 70 -16 7 -27 16 -25 21 9 13 68 -12 101 -43z m331 26 c37 -14 45 -14 72 0 42 22 94 21 89 -1 -2 -10 -12 -19 -23 -21 -65 -10 -67 -11 -50 -35 20 -29 19 -37 -5 -37 -10 0 -24 9 -30 20 -13 24 -19 25 -48 2 -20 -16 -21 -20 -10 -45 17 -36 40 -34 95 8 25 19 49 32 54 29 17 -10 9 -31 -18 -44 l-28 -14 28 -4 c44 -6 31 -22 -17 -22 -49 0 -65 -13 -46 -35 17 -21 27 -19 33 6 7 24 33 20 29 -5 -2 -10 4 -16 18 -16 11 0 20 -4 20 -10 0 -5 -14 -10 -31 -10 -18 0 -38 -7 -46 -17 -13 -17 -14 -17 -29 4 -13 18 -22 21 -47 16 -18 -3 -36 -12 -40 -20 -10 -16 -37 -17 -37 0 0 6 -7 25 -15 41 -20 38 -11 66 21 66 31 0 30 7 -3 43 l-28 29 32 -7 c27 -5 34 -2 49 20 20 31 15 37 -48 57 -21 6 -38 15 -38 20 0 10 38 3 97 -18z m-646 -261 c13 -15 12 -15 -8 -4 -24 12 -29 21 -14 21 5 0 15 -7 22 -17z m1021 -3 c-12 -12 -22 -27 -22 -35 0 -13 -67 -15 -497 -13 l-498 3 493 2 c316 2 492 7 492 13 0 11 36 50 47 50 4 0 -3 -9 -15 -20z m-1068 -26 c24 -24 19 -30 -6 -8 -13 10 -25 20 -27 21 -2 2 1 3 7 3 6 0 18 -7 26 -16z m1076 -66 c0 -5 -238 -8 -530 -8 -291 0 -530 3 -530 8 0 4 238 7 530 7 291 0 530 -3 530 -7z"/>
<path d="M469 3797 c-19 -13 -39 -38 -46 -57 -9 -25 -12 -171 -12 -518 -1 -524 -1 -527 54 -570 l28 -22 1104 0 1105 0 34 34 34 34 0 524 c0 574 2 551 -60 583 -25 13 -171 15 -1118 15 l-1089 0 -34 -23z m171 -231 c0 -43 5 -77 12 -84 9 -9 -7 -12 -72 -10 -83 1 -83 2 -25 7 l60 6 3 62 c3 56 1 63 -20 74 -22 12 -22 12 -3 19 38 14 45 1 45 -74z m100 48 c0 -21 4 -24 40 -24 33 0 40 3 40 20 0 11 -5 20 -12 20 -8 0 -9 3 -2 10 16 16 44 1 44 -24 0 -12 5 -27 12 -34 9 -9 9 -12 0 -12 -7 0 -12 -14 -12 -35 0 -31 -3 -35 -25 -35 -37 0 -31 -18 8 -23 17 -2 -6 -4 -53 -4 -47 0 -68 2 -47 4 41 5 51 23 13 23 -14 0 -28 5 -31 10 -9 15 -9 115 -1 129 11 17 26 3 26 -25z m817 23 c11 4 14 -2 11 -28 -2 -28 -7 -34 -28 -34 -18 0 -26 7 -28 23 -5 34 6 58 20 44 6 -6 17 -8 25 -5z m53 -12 c0 -14 24 -27 34 -18 3 4 1 12 -5 20 -9 10 -7 13 10 13 20 0 22 -4 19 -47 -3 -45 -5 -48 -32 -51 -16 -2 -33 1 -39 7 -14 14 -19 50 -12 79 6 23 25 22 25 -3z m150 -16 c0 -29 13 -39 25 -18 4 6 13 8 21 5 10 -4 14 2 14 19 0 13 5 27 10 30 6 4 10 -7 10 -25 0 -27 3 -30 20 -25 18 6 20 2 20 -49 0 -44 -3 -56 -15 -56 -9 0 -18 -7 -21 -15 -8 -19 -24 -20 -24 -1 0 8 -12 17 -27 21 -21 5 -31 1 -45 -17 l-18 -23 0 22 c0 12 -6 24 -12 26 -7 3 -3 6 10 6 27 1 27 5 2 41 -17 24 -18 29 -5 34 8 3 15 9 14 13 -1 4 -1 18 0 31 2 34 21 16 21 -19z m318 -57 l-3 -86 -35 0 c-35 0 -35 0 -41 55 l-6 54 -1 -52 -2 -53 -35 0 -35 0 0 70 c0 40 4 70 10 70 6 0 10 -4 10 -10 0 -5 11 -10 25 -10 27 0 33 18 13 38 -9 9 -9 12 0 12 7 0 22 -16 34 -35 11 -20 26 -34 32 -32 18 6 19 39 1 50 -13 7 -14 11 -5 17 32 20 41 0 38 -88z m202 48 c0 -41 -3 -50 -17 -51 -14 0 -13 -2 5 -9 22 -9 31 -40 12 -40 -5 0 -10 5 -10 10 0 6 -11 10 -25 10 -14 0 -25 -4 -25 -9 0 -5 11 -12 25 -15 14 -4 25 -11 25 -17 0 -7 -10 -9 -24 -5 -14 3 -28 2 -31 -4 -10 -17 -25 -11 -25 10 0 11 -4 20 -9 20 -5 0 -11 -9 -14 -20 -3 -11 -10 -20 -16 -20 -6 0 -11 9 -11 20 0 11 -5 20 -10 20 -6 0 -5 8 2 20 11 16 9 22 -7 34 -19 14 -19 15 -2 21 20 8 23 35 5 53 -9 9 -7 12 10 12 20 0 29 -19 23 -53 -1 -4 3 -16 9 -27 7 -13 7 -21 -1 -26 -7 -4 -7 -10 -1 -16 7 -7 17 -3 31 11 16 16 17 21 6 21 -11 0 -15 12 -15 46 0 44 1 45 28 40 15 -3 34 -2 42 4 8 5 16 10 18 10 1 0 2 -22 2 -50z m142 -13 c3 -51 4 -52 36 -55 60 -6 21 -22 -54 -22 -73 0 -104 16 -41 22 29 3 32 6 35 40 3 30 -1 39 -20 49 -22 12 -22 12 -3 19 34 12 44 0 47 -53z m-1422 20 l18 -30 4 29 c2 21 9 30 26 32 13 2 25 -3 28 -13 8 -21 -5 -33 -16 -15 -7 12 -10 11 -16 -4 -4 -10 -2 -27 4 -37 14 -22 16 -69 3 -69 -5 0 -7 -10 -3 -22 3 -14 2 -19 -6 -14 -7 4 -12 14 -12 22 0 20 -9 18 -31 -8 l-20 -23 6 22 c3 12 1 24 -5 28 -13 8 -13 48 1 62 12 12 3 53 -12 53 -5 0 -9 -12 -9 -26 0 -22 -4 -25 -27 -22 -23 2 -29 9 -31 34 -3 30 -2 31 38 31 36 0 45 -4 60 -30z m390 5 l28 -29 22 30 c16 21 25 26 33 18 8 -8 5 -15 -10 -26 -12 -8 -27 -31 -33 -50 -14 -44 -26 -45 -34 -3 -3 18 -18 45 -33 60 -35 37 -10 36 27 0z m-34 -47 c24 -50 29 -55 59 -55 29 0 32 3 28 23 l-6 22 23 -21 c28 -28 19 -44 -26 -44 -24 0 -34 -4 -34 -16 0 -31 -23 -7 -36 37 -8 25 -23 54 -34 64 -21 19 -27 45 -10 45 6 0 22 -25 36 -55z m1014 -2 c0 -22 -16 -15 -31 15 -23 46 -23 48 5 23 14 -14 26 -30 26 -38z m123 51 c8 -8 -31 -64 -44 -64 -5 0 -1 16 8 35 17 35 24 41 36 29z m-1953 -25 c0 -7 10 -9 25 -5 24 6 25 4 25 -34 0 -45 -14 -56 -55 -46 -21 5 -25 12 -25 45 0 21 3 41 7 44 10 11 23 8 23 -4z m420 -39 c0 -5 -9 -10 -19 -10 -11 0 -23 5 -26 10 -4 6 5 10 19 10 14 0 26 -4 26 -10z m600 2 c0 -4 -9 -8 -20 -8 -11 0 -20 4 -20 8 0 4 9 8 20 8 11 0 20 -4 20 -8z m-290 -12 c0 -6 -33 -10 -80 -10 -47 0 -80 4 -80 10 0 6 33 10 80 10 47 0 80 -4 80 -10z m-317 -17 c-7 -2 -19 -2 -25 0 -7 3 -2 5 12 5 14 0 19 -2 13 -5z m600 0 c-7 -2 -19 -2 -25 0 -7 3 -2 5 12 5 14 0 19 -2 13 -5z m112 -1 c-15 -11 -17 -32 -3 -32 7 0 2 -7 -10 -16 -20 -14 -24 -14 -44 0 -12 9 -17 16 -10 16 14 0 12 21 -3 32 -5 4 10 8 35 8 25 0 41 -4 35 -8z m-315 -11 c0 -13 -29 -35 -37 -28 -7 8 15 37 28 37 5 0 9 -4 9 -9z m-406 -32 c-13 -15 -20 -17 -23 -7 -2 7 -9 16 -15 20 -6 4 4 8 23 8 34 0 34 0 15 -21z m611 1 c-19 -21 -41 -28 -29 -9 3 6 0 15 -7 20 -10 6 -3 9 20 9 33 0 34 0 16 -20z m888 -7 c-18 -2 -48 -2 -65 0 -18 2 -4 4 32 4 36 0 50 -2 33 -4z m-1909 -227 c-4 -26 -1 -46 5 -50 7 -5 11 4 11 23 0 23 5 31 18 31 14 0 15 2 2 10 -13 9 -13 10 0 11 10 0 8 3 -5 9 -15 6 -6 9 33 9 40 1 52 -2 52 -14 0 -8 -8 -16 -17 -16 -16 -1 -16 -2 -2 -6 11 -2 18 -17 21 -39 3 -29 1 -34 -17 -34 -18 -1 -19 -1 -2 -11 9 -6 14 -15 11 -21 -4 -6 0 -14 7 -19 12 -7 11 -9 -1 -10 -8 0 -28 -2 -45 -3 -48 -4 -59 3 -39 25 16 18 16 19 0 19 -9 0 -21 -11 -26 -25 -10 -27 -30 -34 -30 -10 0 8 -6 24 -12 35 -10 16 -10 24 0 40 6 11 12 35 12 53 0 35 7 50 21 41 4 -2 5 -24 3 -48z m279 43 c42 -1 54 -3 37 -8 -31 -8 -38 -40 -14 -58 16 -12 16 -13 1 -13 -10 0 -17 -8 -17 -20 0 -11 -7 -20 -15 -20 -8 0 -15 9 -15 20 0 12 -7 20 -17 21 -16 1 -16 2 -2 6 22 5 31 53 13 60 -32 12 -47 -6 -40 -49 9 -58 21 -68 77 -68 27 0 49 -4 49 -10 0 -5 -20 -10 -45 -10 -33 0 -45 -4 -45 -15 0 -8 -5 -15 -10 -15 -6 0 -13 7 -16 15 -4 8 -17 15 -30 15 -13 0 -24 5 -24 10 0 6 9 10 21 10 21 0 21 0 -2 37 -16 25 -19 38 -11 41 7 2 12 17 12 34 0 23 4 29 16 24 9 -3 43 -6 77 -7z m137 -9 c0 -12 7 -20 18 -20 14 0 14 -2 3 -9 -11 -7 -12 -13 -4 -23 6 -7 11 -17 10 -23 0 -5 7 -11 16 -13 10 -2 17 3 17 12 0 9 -6 16 -12 16 -10 0 -10 2 -1 8 6 4 13 20 15 35 4 38 22 39 26 2 2 -16 9 -33 15 -37 9 -6 9 -8 0 -8 -18 0 -16 -21 3 -35 15 -11 15 -15 -6 -43 -13 -18 -26 -32 -29 -32 -3 0 -14 14 -23 30 -12 22 -22 28 -34 23 -16 -6 -16 -7 -1 -12 16 -6 15 -8 -3 -24 -19 -16 -22 -16 -36 -2 -8 8 -13 19 -9 24 3 5 1 12 -5 16 -14 9 -13 48 2 63 10 10 10 15 -2 22 -13 8 -12 10 3 10 10 0 17 8 17 20 0 11 5 20 10 20 6 0 10 -9 10 -20z m268 -13 c9 4 20 11 23 16 4 6 13 5 21 -3 10 -10 12 -26 8 -56 -4 -23 -6 -54 -5 -68 0 -18 -4 -25 -13 -21 -7 2 -15 -2 -18 -10 -4 -8 -15 -15 -26 -15 -10 0 -16 5 -13 10 6 9 -27 15 -67 11 -16 -2 -18 7 -18 67 0 65 1 70 20 65 16 -4 19 -2 14 12 -7 17 -6 17 19 0 27 -17 27 -17 28 6 2 23 2 23 6 2 3 -16 9 -20 21 -16z m260 -3 c3 -27 2 -28 -11 -10 -13 17 -14 17 -20 2 -4 -10 0 -30 8 -46 16 -31 3 -52 -14 -23 -9 16 -10 16 -11 -4 0 -16 6 -23 20 -23 23 0 24 -4 10 -31 -13 -24 -31 -25 -24 -1 5 16 5 16 -6 0 -14 -23 -26 -23 -32 0 -4 14 -13 18 -41 16 -20 -2 -39 1 -42 6 -4 6 13 10 39 10 32 0 46 4 46 14 0 7 3 28 6 45 6 29 5 31 -22 31 -40 0 -74 10 -74 22 0 11 29 7 65 -8 18 -7 18 -6 6 9 -16 20 -8 22 21 6 16 -9 24 -7 36 5 22 22 36 15 40 -20z m97 26 c3 -5 17 -10 30 -10 13 0 27 5 30 10 14 23 25 7 25 -35 0 -33 -4 -45 -15 -45 -8 0 -15 7 -15 15 0 10 -10 15 -30 15 -16 0 -30 -4 -30 -10 0 -5 11 -10 25 -10 18 0 23 -4 19 -15 -5 -12 2 -15 32 -15 32 -1 36 -2 21 -11 -14 -8 -16 -14 -7 -24 17 -21 3 -37 -20 -25 -14 7 -23 6 -34 -6 -15 -14 -18 -14 -42 5 -21 16 -23 21 -10 21 28 0 12 24 -20 31 -29 7 -29 7 6 8 37 2 38 1 -17 39 -16 12 -16 12 0 8 13 -4 17 1 17 23 0 38 20 55 35 31z m185 -26 c0 -25 4 -34 13 -30 6 3 20 9 30 12 10 4 17 16 17 30 0 33 18 30 22 -3 2 -20 8 -27 21 -25 14 2 17 -5 17 -48 0 -43 -3 -53 -20 -57 -11 -3 -20 -12 -20 -19 0 -8 -4 -14 -10 -14 -5 0 -10 6 -10 13 0 8 -11 19 -25 25 -22 10 -27 9 -42 -15 l-17 -26 -6 24 c-4 15 -1 28 8 34 11 9 10 15 -7 37 -18 23 -19 27 -5 32 11 4 14 13 10 30 -3 12 -3 26 1 30 15 14 23 4 23 -30z m318 -57 l3 -87 -41 0 -40 0 -2 53 -1 52 -6 -50 c-6 -48 -8 -50 -38 -53 l-33 -3 0 75 c0 42 4 76 9 76 5 0 11 -4 13 -9 2 -4 13 -12 26 -15 25 -8 31 11 10 32 -9 9 -9 12 0 12 6 0 19 -12 29 -27 10 -16 21 -31 26 -34 5 -4 4 -10 -2 -13 -18 -11 -13 -36 7 -36 16 0 19 8 20 46 0 30 -4 47 -14 51 -19 7 -7 25 14 21 14 -3 18 -19 20 -91z m109 60 c20 -18 23 -18 38 -3 27 26 53 37 60 25 8 -12 9 -11 -27 -27 -16 -6 -28 -16 -28 -21 0 -5 12 -12 28 -14 25 -4 25 -4 -5 -6 -38 -1 -44 -18 -9 -27 17 -4 22 -11 19 -25 -3 -10 0 -19 6 -19 6 0 11 -4 11 -10 0 -5 -9 -10 -19 -10 -11 0 -22 -6 -24 -12 -4 -10 -7 -10 -14 0 -14 19 -53 24 -53 6 0 -20 -27 -18 -33 4 -2 9 -8 26 -13 37 -7 19 -7 20 13 2 20 -18 22 -18 31 -1 9 17 11 17 36 1 31 -21 36 -21 36 -3 0 10 -16 17 -47 21 -64 9 -75 13 -35 14 17 1 32 6 32 11 0 6 -15 11 -32 11 -22 1 -26 3 -13 6 34 8 37 20 11 41 -14 11 -26 22 -26 26 0 10 34 -6 57 -27z m203 -32 l25 -38 5 44 c5 41 7 44 38 47 36 4 50 -15 33 -45 -9 -16 -10 -16 -11 5 0 17 -5 23 -17 20 -30 -6 -28 -40 3 -65 16 -12 25 -25 21 -29 -4 -4 -13 -2 -19 4 -20 20 -30 14 -26 -15 2 -19 10 -29 28 -34 14 -4 -15 -7 -65 -7 -49 0 -82 2 -72 5 21 6 22 34 2 73 -14 26 -14 29 0 24 26 -10 31 27 7 47 -29 23 -28 35 1 17 12 -8 33 -32 47 -53z m-1048 -23 c-2 -11 2 -23 8 -27 6 -4 10 4 10 19 0 17 6 26 16 26 11 0 14 -8 12 -27 -3 -25 -7 -28 -38 -28 -36 0 -49 18 -36 51 9 22 32 11 28 -14z m1288 -13 c0 -12 -7 -19 -20 -19 -23 0 -24 4 -8 29 14 23 28 18 28 -10z m-250 -250 c0 -8 15 -10 48 -6 l49 6 -3 -42 c-1 -23 -3 -45 -3 -49 -1 -4 -16 -9 -33 -11 -29 -3 -29 -4 7 -5 58 0 57 0 38 -21 -10 -11 -29 -21 -43 -24 -20 -3 -19 -5 9 -6 27 -1 31 -3 22 -15 -7 -8 -20 -13 -29 -11 -9 2 -39 7 -65 11 -32 4 -44 10 -35 15 10 7 10 9 -2 9 -13 1 -13 2 0 13 23 19 23 38 0 62 -20 21 -20 23 -3 22 13 -2 19 6 21 31 3 29 22 47 22 21z m-1784 -17 c1 -7 2 -16 3 -21 1 -11 41 -11 41 -1 0 4 6 7 13 7 23 0 15 -27 -15 -48 -35 -26 -37 -49 -2 -49 14 0 23 -4 19 -10 -3 -5 -17 -10 -29 -10 -15 0 -26 -7 -29 -20 -3 -11 -10 -20 -17 -20 -7 0 -14 9 -17 20 -3 13 -14 20 -29 20 -13 0 -24 5 -24 10 0 6 9 10 20 10 26 0 26 4 -11 57 -31 47 -28 49 23 28 13 -5 19 0 24 20 6 25 28 30 30 7z m144 -4 c0 -13 4 -29 9 -37 7 -11 11 -10 20 5 9 16 12 17 20 5 7 -11 10 -8 13 14 4 37 28 46 28 10 0 -19 5 -25 18 -23 14 2 18 -6 20 -49 2 -43 0 -53 -13 -53 -9 0 -18 -7 -21 -15 -8 -19 -34 -20 -34 -1 0 24 -43 28 -59 6 -7 -11 -17 -20 -21 -20 -11 0 -7 33 4 42 6 4 4 18 -4 35 -23 45 -23 46 -11 39 7 -5 11 5 11 28 0 20 5 36 10 36 6 0 10 -10 10 -22z m255 -16 c11 -17 26 -31 33 -32 19 0 15 48 -5 53 -17 4 -17 4 0 12 39 17 48 0 45 -87 l-3 -83 -40 0 -40 0 -5 71 c-3 42 -11 79 -20 89 -13 16 -13 18 0 13 8 -2 24 -19 35 -36z m153 5 c3 -23 8 -27 38 -27 42 0 57 26 28 47 -18 14 -17 14 11 11 24 -2 31 -9 35 -33 3 -16 3 -46 2 -67 -4 -32 -8 -38 -27 -38 -13 0 -27 -4 -30 -10 -4 -6 8 -10 29 -10 20 0 36 -4 36 -10 0 -6 -33 -10 -80 -10 -47 0 -80 4 -80 10 0 6 14 10 30 10 17 0 30 5 30 10 0 6 -11 10 -24 10 -21 0 -24 5 -28 42 -5 56 2 100 16 95 6 -2 12 -16 14 -30z m290 4 c4 -23 3 -23 -13 -8 -29 30 -53 15 -62 -36 -6 -37 11 -53 23 -22 4 10 20 15 46 15 l39 0 -3 -47 c-3 -42 -6 -48 -27 -51 -13 -2 -35 2 -48 9 -20 11 -26 11 -33 -1 -7 -11 -11 -11 -24 3 -9 8 -13 22 -10 30 3 8 1 18 -5 22 -16 9 -13 28 3 22 25 -10 25 20 0 44 -17 16 -21 26 -14 33 8 8 14 6 21 -4 8 -13 11 -13 20 3 8 13 20 17 47 15 30 -2 38 -7 40 -27z m196 23 c9 -3 16 -12 16 -20 0 -17 -12 -18 -27 -3 -17 17 -53 1 -54 -24 -3 -51 7 -71 22 -44 7 11 22 17 45 17 l35 0 -3 -47 c-3 -44 -5 -48 -31 -51 -16 -2 -35 3 -44 10 -13 10 -17 10 -20 1 -10 -28 -47 -3 -49 32 -1 11 -5 29 -10 40 -7 17 -6 18 8 7 13 -10 17 -10 22 4 4 11 -1 22 -14 31 -11 8 -20 21 -20 29 0 19 10 18 26 -3 12 -16 13 -16 14 -1 0 24 46 36 84 22z m326 -23 c0 -34 17 -50 26 -26 4 9 13 14 20 11 10 -4 14 3 14 19 0 16 6 25 15 25 9 0 15 -10 15 -26 0 -19 4 -25 15 -20 12 4 15 -5 15 -49 0 -42 -3 -55 -15 -55 -8 0 -15 -7 -15 -15 0 -8 -7 -15 -15 -15 -8 0 -15 6 -15 14 0 23 -40 27 -58 5 -20 -23 -37 -25 -28 -4 3 8 1 15 -4 15 -6 0 -10 5 -10 11 0 5 4 8 9 4 18 -11 23 16 7 40 -18 28 -20 39 -6 30 6 -4 10 8 10 29 0 20 5 36 10 36 6 0 10 -13 10 -29z m242 12 c8 -10 18 -26 21 -35 10 -28 37 -22 37 7 0 16 -6 25 -16 25 -8 0 -12 5 -9 10 3 6 15 10 26 10 16 0 19 -8 21 -42 1 -40 1 -96 -1 -126 -1 -9 -13 -12 -38 -10 l-38 3 -6 55 -6 55 -1 -52 -2 -53 -35 0 -35 0 0 70 c0 64 9 86 25 60 9 -15 45 -12 45 3 0 7 -5 18 -12 25 -7 7 -8 12 -2 12 6 0 18 -8 26 -17z m418 -32 c0 -61 10 -69 35 -30 20 28 35 33 42 12 2 -5 -14 -22 -36 -37 -47 -33 -44 -53 7 -59 21 -2 -2 -4 -50 -5 -49 -1 -88 2 -88 6 0 4 16 6 35 4 19 -2 35 0 35 5 0 6 -18 31 -41 57 -43 48 -40 61 5 25 22 -17 27 -18 32 -6 3 8 5 21 3 28 -3 28 1 49 11 49 6 0 10 -22 10 -49z m-1140 20 c0 -5 -7 -14 -15 -21 -12 -10 -15 -10 -15 2 0 8 3 18 7 21 9 10 23 9 23 -2z m200 0 c0 -5 -7 -14 -15 -21 -16 -14 -18 -10 -9 14 6 17 24 22 24 7z m-750 -11 c0 -5 9 -10 20 -10 18 0 20 -7 20 -60 l0 -60 -35 0 -35 0 0 63 c0 35 3 67 7 70 10 10 23 8 23 -3z m682 -22 c-15 -15 -24 -6 -16 16 5 12 10 14 17 7 8 -8 8 -14 -1 -23z m-204 10 c-2 -6 -10 -14 -16 -16 -7 -2 -10 2 -6 12 7 18 28 22 22 4z m419 -24 c2 -5 -10 -18 -27 -27 -34 -21 -37 -17 -14 19 16 24 34 28 41 8z"/>
<path d="M743 3540 c0 -16 6 -30 12 -30 6 0 12 14 12 30 0 17 -6 30 -12 30 -6 0 -12 -13 -12 -30z"/>
<path d="M800 3561 c0 -6 5 -13 10 -16 6 -3 10 1 10 9 0 9 -4 16 -10 16 -5 0 -10 -4 -10 -9z"/>
<path d="M1530 3600 c0 -5 5 -10 10 -10 6 0 10 5 10 10 0 6 -4 10 -10 10 -5 0 -10 -4 -10 -10z"/>
<path d="M1618 3583 c6 -2 18 -2 25 0 6 3 1 5 -13 5 -14 0 -19 -2 -12 -5z"/>
<path d="M1618 3563 c6 -2 18 -2 25 0 6 3 1 5 -13 5 -14 0 -19 -2 -12 -5z"/>
<path d="M1810 3560 c0 -7 3 -10 7 -7 3 4 3 10 0 14 -4 3 -7 0 -7 -7z"/>
<path d="M1840 3560 c0 -5 5 -10 10 -10 6 0 10 5 10 10 0 6 -4 10 -10 10 -5 0 -10 -4 -10 -10z"/>
<path d="M1760 3541 c0 -6 5 -13 10 -16 6 -3 10 1 10 9 0 9 -4 16 -10 16 -5 0 -10 -4 -10 -9z"/>
<path d="M1810 3520 c0 -7 3 -10 7 -7 3 4 3 10 0 14 -4 3 -7 0 -7 -7z"/>
<path d="M1843 3513 c4 -3 10 -3 14 0 3 4 0 7 -7 7 -7 0 -10 -3 -7 -7z"/>
<path d="M1940 3561 c0 -11 4 -22 9 -25 11 -7 23 22 15 35 -9 16 -24 10 -24 -10z"/>
<path d="M2024 3549 c-8 -14 11 -33 25 -25 6 4 11 14 11 22 0 16 -26 19 -36 3z"/>
<path d="M1942 3506 c1 -10 8 -17 13 -17 15 1 12 24 -3 29 -9 3 -13 -2 -10 -12z"/>
<path d="M2022 3498 c7 -19 38 -22 38 -4 0 10 -9 16 -21 16 -12 0 -19 -5 -17 -12z"/>
<path d="M2220 3612 c0 -14 11 -21 26 -15 21 8 17 23 -6 23 -11 0 -20 -4 -20 -8z"/>
<path d="M2220 3570 c0 -5 6 -10 14 -10 8 0 18 5 21 10 3 6 -3 10 -14 10 -12 0 -21 -4 -21 -10z"/>
<path d="M926 3611 c-4 -7 -5 -15 -2 -18 9 -9 19 4 14 18 -4 11 -6 11 -12 0z"/>
<path d="M1000 3536 c0 -15 24 -28 34 -19 13 14 5 33 -14 33 -11 0 -20 -6 -20 -14z"/>
<path d="M540 3545 c0 -17 5 -25 13 -22 6 2 12 12 12 22 0 10 -6 20 -12 23 -8 2 -13 -6 -13 -23z"/>
<path d="M623 3273 c4 -3 10 -3 14 0 3 4 0 7 -7 7 -7 0 -10 -3 -7 -7z"/>
<path d="M563 3173 c4 -3 10 -3 14 0 3 4 0 7 -7 7 -7 0 -10 -3 -7 -7z"/>
<path d="M595 3140 c3 -5 8 -10 11 -10 2 0 4 5 4 10 0 6 -5 10 -11 10 -5 0 -7 -4 -4 -10z"/>
<path d="M930 3210 c0 -5 5 -10 10 -10 6 0 10 5 10 10 0 6 -4 10 -10 10 -5 0 -10 -4 -10 -10z"/>
<path d="M1012 3168 c6 -18 25 -20 31 -3 5 10 0 15 -14 15 -12 0 -19 -5 -17 -12z"/>
<path d="M1213 3183 c4 -3 10 -3 14 0 3 4 0 7 -7 7 -7 0 -10 -3 -7 -7z"/>
<path d="M1170 3160 c0 -5 5 -10 10 -10 6 0 10 5 10 10 0 6 -4 10 -10 10 -5 0 -10 -4 -10 -10z"/>
<path d="M1212 3161 c4 -13 18 -16 19 -4 0 4 -5 9 -11 12 -7 2 -11 -2 -8 -8z"/>
<path d="M1570 3260 c0 -5 13 -10 29 -10 17 0 33 5 36 10 4 6 -8 10 -29 10 -20 0 -36 -4 -36 -10z"/>
<path d="M1600 3160 c0 -5 5 -10 11 -10 5 0 7 5 4 10 -3 6 -8 10 -11 10 -2 0 -4 -4 -4 -10z"/>
<path d="M1810 3210 c0 -7 3 -10 7 -7 3 4 3 10 0 14 -4 3 -7 0 -7 -7z"/>
<path d="M1840 3210 c0 -5 5 -10 10 -10 6 0 10 5 10 10 0 6 -4 10 -10 10 -5 0 -10 -4 -10 -10z"/>
<path d="M1766 3202 c-2 -4 -1 -14 5 -22 7 -12 9 -10 9 8 0 23 -5 28 -14 14z"/>
<path d="M1810 3170 c0 -7 3 -10 7 -7 3 4 3 10 0 14 -4 3 -7 0 -7 -7z"/>
<path d="M1840 3170 c0 -5 5 -10 10 -10 6 0 10 5 10 10 0 6 -4 10 -10 10 -5 0 -10 -4 -10 -10z"/>
<path d="M1940 3210 c0 -13 5 -20 13 -17 6 2 12 10 12 17 0 7 -6 15 -12 18 -8 2 -13 -5 -13 -18z"/>
<path d="M1940 3161 c0 -11 5 -23 10 -26 6 -4 10 5 10 19 0 14 -4 26 -10 26 -5 0 -10 -9 -10 -19z"/>
<path d="M2025 3161 c-8 -15 3 -31 21 -31 9 0 14 7 12 17 -4 20 -24 28 -33 14z"/>
<path d="M2183 3153 c4 -3 10 -3 14 0 3 4 0 7 -7 7 -7 0 -10 -3 -7 -7z"/>
<path d="M2360 3201 c0 -6 5 -13 10 -16 6 -3 10 1 10 9 0 9 -4 16 -10 16 -5 0 -10 -4 -10 -9z"/>
<path d="M2382 3153 c2 -10 10 -18 18 -18 8 0 16 8 18 18 2 12 -3 17 -18 17 -15 0 -20 -5 -18 -17z"/>
<path d="M2390 2903 c0 -18 6 -23 25 -23 15 0 25 6 25 14 0 9 -7 12 -20 9 -27 -7 -25 5 3 17 21 8 20 9 -5 7 -22 -1 -28 -6 -28 -24z"/>
<path d="M545 2880 c3 -5 11 -10 16 -10 6 0 7 5 4 10 -3 6 -11 10 -16 10 -6 0 -7 -4 -4 -10z"/>
<path d="M595 2881 c-3 -5 -1 -12 5 -16 5 -3 10 1 10 9 0 18 -6 21 -15 7z"/>
<path d="M790 2864 c0 -8 5 -12 10 -9 6 4 8 11 5 16 -9 14 -15 11 -15 -7z"/>
<path d="M830 2864 c0 -8 5 -12 10 -9 6 4 8 11 5 16 -9 14 -15 11 -15 -7z"/>
<path d="M750 2846 c0 -8 5 -18 10 -21 6 -3 10 3 10 14 0 12 -4 21 -10 21 -5 0 -10 -6 -10 -14z"/>
<path d="M791 2824 c0 -11 3 -14 6 -6 3 7 2 16 -1 19 -3 4 -6 -2 -5 -13z"/>
<path d="M830 2820 c0 -7 3 -10 7 -7 3 4 3 10 0 14 -4 3 -7 0 -7 -7z"/>
<path d="M1012 2853 c5 -25 28 -28 28 -4 0 12 -6 21 -16 21 -9 0 -14 -7 -12 -17z"/>
<path d="M1012 2803 c5 -25 28 -28 28 -4 0 12 -6 21 -16 21 -9 0 -14 -7 -12 -17z"/>
<path d="M1145 2870 c-3 -5 3 -10 15 -10 12 0 18 5 15 10 -3 6 -10 10 -15 10 -5 0 -12 -4 -15 -10z"/>
<path d="M1202 2869 c2 -6 8 -10 13 -10 5 0 11 4 13 10 2 6 -4 11 -13 11 -9 0 -15 -5 -13 -11z"/>
<path d="M1150 2830 c0 -5 5 -10 10 -10 6 0 10 5 10 10 0 6 -4 10 -10 10 -5 0 -10 -4 -10 -10z"/>
<path d="M1200 2830 c0 -5 7 -10 15 -10 8 0 15 5 15 10 0 6 -7 10 -15 10 -8 0 -15 -4 -15 -10z"/>
<path d="M1420 2850 c0 -5 5 -10 10 -10 6 0 10 5 10 10 0 6 -4 10 -10 10 -5 0 -10 -4 -10 -10z"/>
<path d="M1423 2810 c1 -11 5 -20 9 -20 4 0 8 9 8 20 0 11 -4 20 -9 20 -6 0 -9 -9 -8 -20z"/>
<path d="M1370 2810 c0 -5 5 -10 10 -10 6 0 10 5 10 10 0 6 -4 10 -10 10 -5 0 -10 -4 -10 -10z"/>
<path d="M1620 2850 c0 -5 5 -10 10 -10 6 0 10 5 10 10 0 6 -4 10 -10 10 -5 0 -10 -4 -10 -10z"/>
<path d="M1576 2821 c-4 -7 -5 -15 -2 -18 9 -9 19 4 14 18 -4 11 -6 11 -12 0z"/>
<path d="M1624 2808 c2 -19 16 -29 16 -13 0 3 0 12 0 20 0 8 -4 15 -10 15 -5 0 -8 -10 -6 -22z"/>
<path d="M2011 2864 c0 -11 3 -14 6 -6 3 7 2 16 -1 19 -3 4 -6 -2 -5 -13z"/>
<path d="M2051 2864 c0 -11 3 -14 6 -6 3 7 2 16 -1 19 -3 4 -6 -2 -5 -13z"/>
<path d="M1970 2845 c0 -8 5 -15 10 -15 6 0 10 7 10 15 0 8 -4 15 -10 15 -5 0 -10 -7 -10 -15z"/>
<path d="M2011 2824 c0 -11 3 -14 6 -6 3 7 2 16 -1 19 -3 4 -6 -2 -5 -13z"/>
<path d="M2050 2820 c0 -7 3 -10 7 -7 3 4 3 10 0 14 -4 3 -7 0 -7 -7z"/>
<path d="M2147 2871 c-3 -12 -1 -24 4 -27 13 -8 24 25 12 37 -7 7 -12 3 -16 -10z"/>
<path d="M2232 2854 c4 -21 22 -23 26 -1 2 10 -3 17 -13 17 -10 0 -15 -6 -13 -16z"/>
<path d="M2150 2810 c0 -11 5 -20 10 -20 6 0 10 9 10 20 0 11 -4 20 -10 20 -5 0 -10 -9 -10 -20z"/>
<path d="M2230 2799 c0 -24 23 -21 28 4 2 10 -3 17 -12 17 -10 0 -16 -9 -16 -21z"/>
<path d="M930 2810 c0 -11 5 -20 10 -20 6 0 10 9 10 20 0 11 -4 20 -10 20 -5 0 -10 -9 -10 -20z"/>
<path d="M1163 2448 c2 -7 10 -13 17 -13 7 0 15 6 18 13 2 7 -5 12 -18 12 -13 0 -20 -5 -17 -12z"/>
<path d="M1230 2452 c0 -14 11 -21 26 -15 21 8 17 23 -6 23 -11 0 -20 -4 -20 -8z"/>
<path d="M1167 2414 c-9 -10 2 -24 19 -24 8 0 14 7 14 15 0 15 -21 21 -33 9z"/>
<path d="M1230 2405 c0 -8 9 -15 20 -15 11 0 20 7 20 15 0 8 -9 15 -20 15 -11 0 -20 -7 -20 -15z"/>
<path d="M1420 2480 c0 -5 20 -10 45 -10 25 0 45 5 45 10 0 6 -20 10 -45 10 -25 0 -45 -4 -45 -10z"/>
<path d="M1443 2453 c15 -2 39 -2 55 0 15 2 2 4 -28 4 -30 0 -43 -2 -27 -4z"/>
<path d="M1455 2430 c-28 -7 -27 -8 13 -9 27 -1 41 3 37 9 -7 11 -7 11 -50 0z"/>
<path d="M1920 2504 c0 -14 4 -23 10 -19 6 3 10 15 10 26 0 10 -4 19 -10 19 -5 0 -10 -12 -10 -26z"/>
<path d="M1960 2510 c0 -11 5 -20 10 -20 6 0 10 9 10 20 0 11 -4 20 -10 20 -5 0 -10 -9 -10 -20z"/>
<path d="M2010 2510 c0 -11 5 -20 10 -20 6 0 10 9 10 20 0 11 -4 20 -10 20 -5 0 -10 -9 -10 -20z"/>
<path d="M1940 2430 c0 -5 16 -10 35 -10 19 0 35 5 35 10 0 6 -16 10 -35 10 -19 0 -35 -4 -35 -10z"/>
<path d="M1968 2363 c7 -3 16 -2 19 1 4 3 -2 6 -13 5 -11 0 -14 -3 -6 -6z"/>
<path d="M1400 2360 c0 -5 7 -10 15 -10 8 0 15 5 15 10 0 6 -7 10 -15 10 -8 0 -15 -4 -15 -10z"/>
<path d="M1450 2360 c0 -5 7 -10 15 -10 8 0 15 5 15 10 0 6 -7 10 -15 10 -8 0 -15 -4 -15 -10z"/>
<path d="M1510 2360 c0 -5 7 -10 15 -10 8 0 15 5 15 10 0 6 -7 10 -15 10 -8 0 -15 -4 -15 -10z"/>
<path d="M1660 302 c0 -5 9 -17 19 -26 18 -17 20 -16 26 3 5 16 12 20 31 15 14 -4 24 -2 24 5 0 7 -20 11 -50 11 -27 0 -50 -4 -50 -8z"/>
<path d="M1730 270 c0 -5 10 -10 23 -10 18 0 19 2 7 10 -19 13 -30 13 -30 0z"/>
</g>
<g id="layer105" fill="#e8af8e" stroke="none">
<path d="M0 1985 l0 -1975 1660 0 1660 0 0 1975 0 1975 -1660 0 -1660 0 0 -1975z m2745 1825 c56 -53 55 -37 55 -587 0 -477 -1 -510 -19 -543 -10 -19 -34 -44 -52 -55 -33 -20 -52 -20 -1134 -20 -1082 0 -1101 0 -1134 20 -18 11 -42 36 -52 55 -18 33 -19 66 -19 543 0 500 0 510 21 547 42 74 -43 69 1196 67 l1111 -2 27 -25z m-1577 -1288 c3 -31 4 -32 53 -32 56 0 69 23 22 41 -26 9 -26 11 -10 21 31 17 67 2 67 -29 0 -14 8 -32 18 -39 16 -12 16 -13 0 -19 -13 -5 -18 -18 -18 -51 0 -42 -1 -44 -30 -44 -16 0 -30 -4 -30 -10 0 -5 18 -10 40 -10 22 0 40 -4 40 -10 0 -6 -42 -10 -105 -10 -63 0 -105 4 -105 10 0 6 18 10 39 10 22 0 43 5 46 10 4 6 -8 10 -29 10 -35 0 -36 1 -36 41 0 28 -6 46 -17 55 -17 12 -17 13 0 19 11 5 17 18 17 42 0 27 4 34 18 31 11 -2 18 -14 20 -36z m410 20 c2 -7 -5 -15 -15 -20 -15 -6 -18 -18 -18 -70 0 -43 4 -62 13 -62 7 0 12 -13 12 -30 l0 -30 -100 0 -100 0 0 30 c0 17 4 30 9 30 4 0 6 23 3 52 -4 41 -1 54 12 64 16 11 15 14 -11 28 l-28 15 27 1 c33 0 79 -20 72 -31 -9 -16 13 -9 57 16 46 26 60 27 67 7z m506 -1 c3 -5 -1 -11 -9 -15 -8 -3 -15 -17 -15 -31 l0 -26 -87 3 c-88 3 -88 3 -91 31 -2 15 -8 27 -13 27 -5 0 -9 5 -9 10 0 13 217 14 224 1z m-42 -108 c-2 -16 3 -22 20 -25 36 -5 27 -28 -17 -44 -22 -7 -45 -20 -51 -29 -16 -22 -39 -19 -57 8 -9 13 -29 30 -46 37 -35 14 -41 30 -11 30 13 0 20 7 20 18 0 29 10 33 80 30 60 -3 65 -5 62 -25z m-212 -8 c0 -13 -16 -15 -107 -13 -74 2 -108 7 -111 16 -3 9 23 12 107 12 93 0 111 -2 111 -15z m-510 -187 c-1 -7 -7 -40 -16 -73 -8 -33 -17 -112 -19 -175 -11 -318 106 -692 282 -899 13 -14 23 -29 23 -33 0 -28 -249 -32 -320 -6 -88 32 -135 56 -154 76 -10 12 -22 19 -26 17 -15 -9 -128 114 -167 182 -72 125 -86 179 -87 333 0 130 1 138 32 217 35 86 95 176 153 229 46 41 109 87 109 78 0 -3 7 0 16 7 23 19 123 57 152 58 12 1 22 -5 22 -11z m549 -104 c200 -57 373 -246 421 -460 18 -79 13 -231 -10 -309 -21 -74 -68 -175 -81 -175 -4 0 -10 -9 -14 -19 -14 -45 -128 -141 -219 -187 -87 -43 -200 -72 -218 -55 -4 4 4 40 18 81 60 179 74 429 35 643 -5 33 -12 66 -15 75 -3 10 -7 34 -10 55 -3 20 -10 45 -15 55 -5 9 -24 55 -42 102 -18 47 -50 111 -71 142 -21 31 -38 59 -38 62 0 20 178 13 259 -10z m266 -1564 c4 -17 15 -35 26 -40 18 -10 19 -23 19 -176 0 -136 -3 -166 -15 -170 -8 -3 -20 -21 -27 -40 l-12 -34 -533 0 c-530 0 -533 0 -533 20 0 12 -11 31 -25 44 -25 23 -25 26 -25 181 0 155 0 158 25 181 14 13 25 32 25 44 0 20 3 20 534 20 l534 0 7 -30z"/>
<path d="M484 3805 c-66 -33 -64 -19 -64 -580 0 -433 2 -510 15 -535 33 -63 -33 -60 1160 -60 1193 0 1127 -3 1160 60 13 25 15 102 15 535 0 449 -2 510 -16 534 -35 59 36 56 -1149 58 -957 2 -1094 1 -1121 -12z m156 -174 c5 -11 10 -47 10 -80 0 -33 5 -63 10 -66 6 -4 8 -11 5 -16 -8 -12 -162 -12 -170 1 -4 6 13 10 44 10 75 0 76 1 73 75 -3 48 -7 65 -18 65 -8 0 -14 4 -14 8 0 28 45 29 60 3z m100 -11 c0 -28 2 -30 40 -30 41 0 57 21 24 34 -8 3 -12 10 -9 16 10 16 45 11 51 -7 3 -10 10 -26 16 -37 6 -12 6 -22 -1 -29 -6 -6 -11 -24 -11 -39 0 -23 -4 -28 -26 -28 -14 0 -23 -4 -19 -10 3 -5 19 -10 36 -10 16 0 29 -4 29 -10 0 -6 -35 -10 -85 -10 -50 0 -85 4 -85 10 0 6 14 10 30 10 17 0 30 5 30 10 0 6 -11 10 -25 10 -22 0 -25 4 -25 35 0 21 -5 35 -12 35 -9 0 -9 3 0 12 7 7 12 25 12 40 0 18 5 28 15 28 10 0 15 -10 15 -30z m188 18 c8 -8 15 -8 26 1 13 11 20 8 41 -15 24 -26 25 -26 25 -5 0 18 5 22 28 19 19 -2 28 -9 30 -25 2 -13 -1 -23 -7 -23 -6 0 -11 6 -11 13 0 8 -3 7 -10 -3 -6 -10 -4 -20 6 -31 16 -18 19 -55 4 -64 -6 -4 -8 -15 -5 -25 3 -10 1 -21 -5 -25 -7 -4 -14 2 -17 14 -6 25 -18 27 -27 6 -8 -22 -24 -18 -28 8 l-3 22 -22 -22 c-28 -28 -42 -29 -45 -5 0 9 -2 24 -2 32 -1 8 3 18 9 22 6 5 6 8 -2 8 -7 0 -13 5 -13 10 0 6 14 10 31 10 28 0 31 -3 27 -25 -3 -14 -1 -25 3 -25 5 0 9 6 9 13 0 6 3 30 5 52 5 32 4 36 -4 18 -8 -17 -19 -23 -41 -23 -28 0 -30 2 -30 40 0 41 7 49 28 28z m458 -20 c24 -21 39 -29 41 -21 3 7 13 23 23 35 17 21 19 22 26 5 4 -12 -1 -27 -18 -45 -25 -27 -43 -82 -27 -82 5 0 9 9 9 20 0 26 16 26 30 0 15 -28 5 -40 -34 -40 -25 0 -33 -4 -32 -16 1 -22 -23 -30 -29 -10 -3 9 -7 23 -10 32 -4 14 -6 14 -21 0 -8 -9 -22 -16 -30 -16 -12 0 -12 4 2 25 9 14 20 25 25 25 16 0 10 18 -17 49 -24 29 -25 51 -3 51 6 0 21 -25 34 -55 14 -30 27 -55 30 -55 3 0 5 14 5 31 0 22 -9 40 -30 59 -54 50 -30 57 26 8z m224 10 c0 -10 7 -18 16 -18 13 0 14 3 5 14 -10 12 -8 16 10 21 32 10 40 -10 36 -94 -4 -65 -7 -75 -28 -86 -20 -11 -28 -10 -53 8 -21 15 -31 17 -34 9 -2 -7 -13 -17 -24 -23 -19 -10 -20 -9 -15 10 3 11 1 21 -4 21 -5 0 -9 5 -9 11 0 6 15 9 34 8 19 -2 38 0 42 4 4 4 -10 7 -32 7 -33 0 -40 4 -41 20 -1 16 4 20 28 20 34 0 39 -17 7 -23 -20 -4 -19 -4 5 -6 22 -1 27 3 27 22 0 18 -5 22 -32 22 -31 0 -33 3 -36 36 l-3 35 51 0 c41 0 50 -3 50 -18z m150 -13 c0 -19 5 -35 10 -35 6 0 10 5 10 10 0 6 9 10 20 10 15 0 20 7 20 26 0 31 23 28 28 -4 2 -12 10 -22 18 -22 10 0 14 -13 14 -49 0 -39 -5 -56 -24 -75 -27 -30 -36 -32 -36 -11 0 9 -10 20 -22 24 -18 7 -26 5 -37 -10 -16 -23 -46 -26 -37 -4 3 8 1 15 -4 15 -6 0 -10 5 -10 10 0 6 7 10 15 10 20 0 19 19 -2 43 -13 15 -15 21 -5 24 6 3 12 17 12 32 0 15 3 31 7 34 15 15 23 5 23 -28z m241 13 c10 -13 18 -29 19 -35 0 -15 40 -18 40 -3 0 5 -9 18 -21 29 l-21 19 22 7 c12 4 26 3 31 -2 13 -13 22 -155 11 -171 -7 -11 -27 -12 -86 -7 l-76 7 0 74 c0 69 10 94 24 59 3 -8 15 -15 26 -15 21 0 27 14 10 25 -11 7 -14 35 -4 35 3 0 14 -10 25 -22z m157 10 c7 -7 12 -27 12 -45 0 -18 5 -33 10 -33 6 0 10 19 10 43 l0 43 48 -1 47 -1 2 -76 c2 -89 -13 -122 -43 -98 -13 12 -18 12 -21 3 -7 -21 -30 -15 -38 10 l-8 22 -4 -23 c-5 -24 -38 -28 -38 -4 0 7 -6 16 -13 21 -10 6 -10 10 3 21 14 12 14 15 -1 32 -16 17 -16 19 1 32 16 12 17 16 6 29 -22 27 3 49 27 25z m262 -9 c6 -11 10 -32 9 -47 -4 -36 7 -52 37 -52 13 0 24 -4 24 -10 0 -6 -35 -10 -85 -10 -50 0 -85 4 -85 10 0 6 16 10 35 10 35 0 35 0 35 45 0 33 -4 45 -15 45 -18 0 -20 16 -2 23 24 10 36 7 47 -14z m-43 -73 c-8 -23 -24 -14 -40 22 -24 55 -20 62 13 22 17 -19 29 -39 27 -44z m118 54 c3 -5 -8 -24 -24 -42 -33 -36 -40 -25 -16 22 16 31 29 37 40 20z m-1952 -22 c3 -10 8 -10 21 1 24 20 38 2 34 -45 -3 -38 -4 -39 -43 -39 l-40 0 -3 48 c-2 36 0 47 12 47 8 0 16 -6 19 -12z m725 -37 c6 -1 12 -5 12 -11 0 -6 -37 -10 -90 -10 -79 0 -101 5 -86 21 4 3 121 3 164 0z m1200 -73 c-3 -8 -24 -12 -56 -11 -70 1 -72 2 -72 13 0 6 29 10 66 10 47 0 65 -3 62 -12z m-1813 -272 c1 -47 -2 -87 -5 -87 -3 -1 -35 -2 -72 -4 -71 -2 -67 -4 -87 58 -7 22 -6 29 5 34 9 3 14 20 14 47 l0 42 73 -2 72 -2 0 -86z m163 84 c33 0 51 -4 47 -10 -3 -5 -15 -10 -26 -10 -27 0 -25 -36 4 -44 l22 -7 -22 -9 c-13 -5 -23 -16 -23 -25 0 -8 -7 -15 -15 -15 -8 0 -15 9 -15 20 0 13 -7 20 -20 20 -23 0 -25 -8 -6 -32 9 -13 27 -18 60 -18 25 0 46 -4 46 -10 0 -5 -18 -10 -40 -10 -29 0 -40 -4 -40 -15 0 -8 -9 -15 -19 -15 -10 0 -21 7 -25 15 -3 8 -15 15 -26 15 -11 0 -20 5 -20 10 0 6 7 10 15 10 20 0 19 12 -5 43 -24 30 -25 37 -5 37 10 0 15 10 15 31 0 28 3 31 23 25 12 -3 46 -6 75 -6z m132 -10 c0 -14 7 -20 21 -20 19 0 20 -2 8 -16 -12 -14 -11 -16 6 -13 14 3 21 14 23 37 4 40 32 45 32 6 0 -15 8 -33 18 -40 16 -12 16 -13 0 -19 -22 -9 -24 -25 -4 -25 26 0 28 -20 4 -50 -30 -37 -44 -37 -63 0 -10 19 -20 28 -27 23 -9 -5 -9 -8 0 -11 17 -5 15 -22 -3 -22 -8 0 -15 -4 -15 -10 0 -14 -12 -12 -35 6 -17 13 -18 16 -5 24 11 7 12 10 2 10 -9 0 -13 12 -11 38 2 21 0 43 -5 50 -4 7 -2 12 7 12 8 0 17 9 20 20 3 11 10 20 16 20 6 0 11 -9 11 -20z m240 5 c0 17 1 17 19 1 16 -15 19 -15 24 -1 8 20 27 20 27 -1 0 -8 5 -12 10 -9 7 4 9 -2 6 -17 -12 -55 -15 -108 -6 -108 6 0 10 -4 10 -10 0 -5 -9 -10 -19 -10 -11 0 -23 -4 -26 -10 -8 -13 -45 -13 -45 -1 0 6 -19 11 -42 13 l-43 3 -3 69 c-3 65 -2 68 18 63 15 -4 20 0 20 14 0 18 1 19 25 3 23 -15 25 -15 25 1z m246 0 c29 29 62 8 48 -30 -7 -17 -24 -20 -24 -4 0 5 -4 7 -10 4 -6 -4 -4 -17 5 -35 8 -16 15 -34 15 -40 0 -14 -27 -13 -33 3 -3 7 -6 5 -6 -5 -1 -13 7 -18 24 -18 29 0 31 -7 8 -32 -20 -22 -59 -24 -67 -3 -4 10 -20 15 -51 15 -63 0 -57 20 8 22 l52 1 -45 6 c-40 5 -45 9 -48 34 -2 16 2 35 9 43 9 11 8 14 -5 14 -9 0 -16 4 -16 9 0 17 18 21 44 11 14 -5 25 -6 25 -2 -3 21 3 23 26 8 23 -15 27 -15 41 -1z m228 -30 c0 -32 -6 -43 -25 -52 -24 -13 -24 -13 9 -13 17 0 32 -4 32 -10 0 -5 -5 -10 -10 -10 -6 0 -8 -11 -4 -26 6 -25 5 -25 -30 -19 -24 5 -36 3 -36 -4 0 -6 -7 -11 -15 -11 -8 0 -15 5 -15 10 0 6 -9 10 -20 10 -11 0 -20 5 -20 10 0 6 9 10 20 10 11 0 20 5 20 10 0 6 -13 10 -30 10 -41 0 -38 20 3 21 l32 0 -32 16 c-35 18 -43 33 -18 33 10 0 15 10 15 28 0 28 1 28 63 27 l62 -1 -1 -39z m96 8 c0 -34 1 -35 18 -21 9 9 23 13 30 11 8 -3 12 5 12 22 0 32 23 29 28 -3 2 -13 8 -19 18 -15 11 4 14 -7 14 -56 0 -39 -4 -61 -11 -61 -7 0 -17 -7 -24 -17 -11 -15 -14 -14 -33 5 -27 27 -44 28 -60 2 -14 -23 -37 -27 -29 -5 4 8 1 17 -5 21 -7 5 -5 11 6 20 17 12 17 14 -1 40 -13 20 -14 29 -5 32 6 2 12 17 12 33 0 19 5 29 15 29 11 0 15 -11 15 -37z m252 2 c21 -36 40 -41 46 -13 2 9 -6 19 -18 23 -26 8 -16 25 16 25 16 0 25 -6 26 -17 5 -58 6 -93 2 -130 -5 -41 -7 -43 -38 -43 -18 0 -36 3 -40 7 -4 4 -25 6 -46 4 l-40 -3 0 76 c0 44 4 76 10 76 6 0 10 -4 10 -10 0 -5 11 -10 25 -10 22 0 24 3 15 19 -24 46 4 42 32 -4z m166 15 l33 -20 26 20 c29 23 49 26 55 8 3 -7 -11 -20 -31 -30 l-36 -16 33 -1 c40 -1 43 -21 3 -21 -36 0 -50 -17 -19 -22 17 -2 23 -9 22 -25 0 -13 5 -23 13 -23 7 0 13 -4 13 -10 0 -5 -9 -10 -19 -10 -11 0 -21 -6 -24 -12 -3 -10 -9 -10 -26 0 -25 15 -51 16 -51 2 0 -23 -31 -7 -43 23 -14 33 -6 47 17 28 10 -8 17 -7 26 4 11 13 8 15 -14 15 -17 0 -25 4 -20 11 3 6 15 9 25 6 11 -3 19 -1 19 4 0 5 -13 9 -30 9 -40 0 -38 18 3 22 l32 4 -32 19 c-18 11 -33 23 -33 28 0 13 24 7 58 -13z m188 -8 c16 -15 34 -36 41 -47 10 -18 12 -15 12 21 1 36 4 43 27 48 15 4 32 2 40 -5 16 -13 19 -45 4 -54 -5 -3 -10 1 -10 9 0 9 -7 16 -15 16 -22 0 -19 -43 5 -58 11 -7 20 -17 20 -23 0 -6 -9 -9 -20 -6 -15 4 -20 0 -20 -14 0 -12 7 -19 20 -19 11 0 20 -4 20 -10 0 -6 -35 -10 -85 -10 -50 0 -85 4 -85 10 0 6 7 10 15 10 19 0 19 17 0 50 -19 34 -20 57 -1 41 24 -20 30 8 7 33 -41 43 -18 51 25 8z m274 -72 c0 -13 -29 -32 -40 -25 -12 8 -13 35 -1 35 5 0 7 10 4 23 l-5 22 21 -24 c12 -13 21 -27 21 -31z m-254 -251 c4 -7 23 -8 51 -4 l46 7 -5 -56 c-3 -30 -1 -53 3 -50 4 2 10 1 12 -3 9 -14 -18 -41 -43 -46 -24 -4 -24 -4 3 -6 27 -1 36 -14 18 -26 -5 -3 -39 0 -75 7 -59 11 -65 14 -68 40 -4 23 -1 28 15 28 20 0 20 1 -1 23 -26 27 -31 57 -7 37 13 -11 15 -8 15 17 0 40 20 58 36 32z m-1786 -20 c0 -19 4 -20 35 -15 45 9 48 -15 5 -51 -37 -30 -38 -43 -5 -43 14 0 25 -4 25 -10 0 -5 -13 -10 -29 -10 -20 0 -30 -6 -34 -20 -3 -11 -10 -20 -17 -20 -7 0 -14 9 -17 20 -4 14 -14 20 -34 20 -16 0 -29 5 -29 10 0 6 11 10 25 10 32 0 31 8 -5 50 -38 45 -37 52 5 44 31 -5 35 -4 35 15 0 14 6 21 20 21 14 0 20 -7 20 -21z m150 -10 c0 -26 2 -30 15 -19 8 6 19 9 25 5 6 -4 10 4 10 19 0 16 6 26 15 26 8 0 15 -9 15 -20 0 -13 7 -20 20 -20 19 0 21 -5 18 -57 -2 -42 -7 -57 -16 -55 -8 1 -16 -7 -19 -18 -7 -25 -14 -25 -36 0 -22 26 -38 25 -60 -1 -21 -24 -22 -24 -31 14 -5 20 -3 27 9 27 20 0 19 6 -6 41 -17 24 -18 29 -5 29 11 0 16 9 16 30 0 20 5 30 15 30 10 0 15 -10 15 -31z m251 -4 c25 -41 39 -45 39 -10 0 16 -6 25 -15 25 -8 0 -15 5 -15 10 0 6 14 10 30 10 l30 0 0 -90 0 -90 -45 0 -45 0 -2 48 -1 47 -6 -45 c-6 -46 -17 -56 -52 -45 -16 5 -19 16 -19 76 0 71 5 78 40 57 25 -16 38 -3 22 22 -10 17 -10 20 3 20 9 0 25 -16 36 -35z m149 10 c0 -22 4 -25 40 -25 29 0 40 4 40 15 0 8 -7 15 -15 15 -8 0 -15 5 -15 10 0 18 50 11 56 -7 3 -10 10 -26 15 -35 6 -11 6 -18 0 -18 -6 0 -11 -17 -13 -37 -2 -30 -8 -39 -28 -44 -21 -6 -19 -7 13 -8 23 -1 36 -5 32 -11 -3 -5 -44 -10 -91 -10 -49 0 -84 4 -84 10 0 6 17 11 38 11 30 2 32 3 10 6 -24 4 -28 9 -28 38 0 19 -5 37 -11 41 -8 4 -8 9 0 17 6 6 11 21 11 34 0 14 6 23 15 23 9 0 15 -9 15 -25z m290 14 c0 -6 9 -8 20 -4 23 7 26 -6 9 -37 -11 -20 -11 -20 -36 4 -15 12 -23 17 -19 10 4 -7 2 -19 -4 -27 -11 -13 -7 -15 24 -15 l36 0 0 -50 0 -50 -39 0 c-22 0 -41 5 -44 13 -3 8 -9 7 -19 -6 -13 -18 -14 -17 -35 1 -15 12 -20 26 -17 39 3 11 1 24 -5 27 -16 11 -13 29 4 23 24 -10 27 11 5 33 -26 26 -26 44 0 37 11 -3 23 -1 26 4 8 13 94 11 94 -2z m207 -5 c5 -12 7 -13 14 -2 6 9 11 10 18 3 8 -8 6 -18 -5 -34 l-16 -22 -25 23 c-16 15 -22 17 -18 6 4 -9 0 -20 -7 -24 -9 -6 0 -11 27 -14 l40 -5 0 -45 0 -45 -39 -3 c-24 -2 -42 2 -47 10 -6 10 -11 8 -23 -7 -13 -19 -15 -19 -21 -2 -4 9 -13 17 -21 17 -17 0 -18 17 -1 23 10 4 10 7 0 18 -18 18 -16 40 2 33 21 -9 19 13 -5 38 -22 24 -17 42 10 33 10 -3 21 -1 25 5 10 17 85 12 92 -6z m319 -8 c-6 -26 8 -44 19 -25 4 5 13 8 21 5 10 -4 14 2 14 19 0 16 6 25 15 25 9 0 15 -9 15 -24 0 -17 5 -23 18 -22 26 2 31 -101 5 -111 -10 -4 -22 -12 -26 -20 -11 -18 -27 -17 -27 2 0 8 -12 18 -26 21 -19 5 -29 1 -40 -15 -17 -23 -37 -20 -27 4 3 8 0 15 -6 15 -6 0 -11 5 -11 10 0 6 7 10 15 10 8 0 15 6 15 14 0 7 -7 19 -15 26 -8 7 -15 16 -15 21 0 5 7 9 15 9 10 0 15 10 15 30 0 21 5 30 16 30 12 0 15 -6 10 -24z m250 -11 c14 -19 30 -32 35 -29 15 9 10 44 -6 44 -8 0 -15 5 -15 11 0 6 12 9 28 7 27 -3 27 -3 30 -91 l3 -87 -83 2 -83 3 -3 73 c-2 59 0 72 13 72 8 0 15 -4 15 -10 0 -5 9 -10 20 -10 23 0 24 4 10 31 -18 33 7 22 36 -16z m414 -17 l1 -53 22 28 c13 15 29 27 36 27 23 0 6 -34 -26 -55 -41 -25 -38 -48 7 -56 58 -9 12 -20 -71 -17 -42 2 -73 7 -71 13 1 5 16 8 32 7 41 -5 39 21 -5 65 -19 19 -35 37 -35 39 0 10 29 2 40 -11 21 -25 30 -17 30 25 0 33 3 40 20 40 17 0 20 -7 20 -52z m-802 -24 c-4 -19 -54 -51 -64 -41 -10 9 35 57 53 57 8 0 13 -7 11 -16z"/>
<path d="M745 3560 c-3 -5 1 -10 9 -10 9 0 16 5 16 10 0 6 -4 10 -9 10 -6 0 -13 -4 -16 -10z"/>
<path d="M800 3560 c0 -5 5 -10 10 -10 6 0 10 5 10 10 0 6 -4 10 -10 10 -5 0 -10 -4 -10 -10z"/>
<path d="M750 3519 c0 -5 5 -7 10 -4 6 3 10 8 10 11 0 2 -4 4 -10 4 -5 0 -10 -5 -10 -11z"/>
<path d="M800 3520 c0 -5 5 -10 10 -10 6 0 10 5 10 10 0 6 -4 10 -10 10 -5 0 -10 -4 -10 -10z"/>
<path d="M930 3600 c0 -7 3 -10 7 -7 3 4 3 10 0 14 -4 3 -7 0 -7 -7z"/>
<path d="M1000 3535 c0 -8 9 -15 20 -15 11 0 20 7 20 15 0 8 -9 15 -20 15 -11 0 -20 -7 -20 -15z"/>
<path d="M1540 3600 c0 -7 3 -10 7 -7 3 4 3 10 0 14 -4 3 -7 0 -7 -7z"/>
<path d="M1623 3583 c4 -3 10 -3 14 0 3 4 0 7 -7 7 -7 0 -10 -3 -7 -7z"/>
<path d="M1623 3563 c4 -3 10 -3 14 0 3 4 0 7 -7 7 -7 0 -10 -3 -7 -7z"/>
<path d="M1771 3534 c0 -11 3 -14 6 -6 3 7 2 16 -1 19 -3 4 -6 -2 -5 -13z"/>
<path d="M1944 3569 c-3 -6 -1 -16 5 -22 8 -8 11 -5 11 11 0 24 -5 28 -16 11z"/>
<path d="M2030 3545 c0 -9 5 -15 11 -13 6 2 11 8 11 13 0 5 -5 11 -11 13 -6 2 -11 -4 -11 -13z"/>
<path d="M1946 3511 c-4 -7 -5 -15 -2 -18 9 -9 19 4 14 18 -4 11 -6 11 -12 0z"/>
<path d="M2030 3495 c0 -9 5 -15 11 -13 6 2 11 8 11 13 0 5 -5 11 -11 13 -6 2 -11 -4 -11 -13z"/>
<path d="M2225 3610 c-3 -5 1 -10 9 -10 9 0 16 5 16 10 0 6 -4 10 -9 10 -6 0 -13 -4 -16 -10z"/>
<path d="M2228 3573 c7 -3 16 -2 19 1 4 3 -2 6 -13 5 -11 0 -14 -3 -6 -6z"/>
<path d="M2181 3541 c-7 -5 -11 -15 -9 -22 3 -10 8 -7 17 9 13 24 12 26 -8 13z"/>
<path d="M2226 3512 c-3 -5 6 -12 20 -15 15 -3 23 0 21 7 -5 14 -33 20 -41 8z"/>
<path d="M540 3540 c0 -11 5 -20 10 -20 6 0 10 9 10 20 0 11 -4 20 -10 20 -5 0 -10 -9 -10 -20z"/>
<path d="M543 3235 c0 -27 2 -38 4 -22 2 15 2 37 0 50 -2 12 -4 0 -4 -28z"/>
<path d="M548 3143 c7 -3 16 -2 19 1 4 3 -2 6 -13 5 -11 0 -14 -3 -6 -6z"/>
<path d="M750 3246 c0 -19 4 -23 20 -19 11 3 20 14 20 24 0 12 -7 19 -20 19 -14 0 -20 -7 -20 -24z"/>
<path d="M980 3200 c0 -5 7 -10 15 -10 8 0 15 5 15 10 0 6 -7 10 -15 10 -8 0 -15 -4 -15 -10z"/>
<path d="M933 3183 c4 -3 10 -3 14 0 3 4 0 7 -7 7 -7 0 -10 -3 -7 -7z"/>
<path d="M1015 3160 c3 -5 10 -10 16 -10 5 0 9 5 9 10 0 6 -7 10 -16 10 -8 0 -12 -4 -9 -10z"/>
<path d="M1210 3160 c0 -5 5 -10 10 -10 6 0 10 5 10 10 0 6 -4 10 -10 10 -5 0 -10 -4 -10 -10z"/>
<path d="M1348 3243 c7 -3 16 -2 19 1 4 3 -2 6 -13 5 -11 0 -14 -3 -6 -6z"/>
<path d="M1390 3231 c0 -25 6 -27 13 -6 4 8 2 17 -3 20 -6 4 -10 -3 -10 -14z"/>
<path d="M1346 3211 c-4 -7 -5 -15 -2 -18 9 -9 19 4 14 18 -4 11 -6 11 -12 0z"/>
<path d="M1580 3260 c0 -5 11 -9 25 -8 14 1 25 6 25 10 0 4 -11 8 -25 8 -14 0 -25 -4 -25 -10z"/>
<path d="M1580 3230 c0 -5 11 -10 25 -10 14 0 25 5 25 10 0 6 -11 10 -25 10 -14 0 -25 -4 -25 -10z"/>
<path d="M1600 3160 c0 -7 3 -10 7 -7 3 4 3 10 0 14 -4 3 -7 0 -7 -7z"/>
<path d="M1765 3190 c3 -5 8 -10 11 -10 2 0 4 5 4 10 0 6 -5 10 -11 10 -5 0 -7 -4 -4 -10z"/>
<path d="M1945 3217 c-4 -10 -5 -21 -1 -24 10 -10 18 4 13 24 -4 17 -4 17 -12 0z"/>
<path d="M2030 3196 c0 -9 7 -16 16 -16 9 0 14 5 12 12 -6 18 -28 21 -28 4z"/>
<path d="M1940 3161 c0 -6 5 -13 10 -16 6 -3 10 1 10 9 0 9 -4 16 -10 16 -5 0 -10 -4 -10 -9z"/>
<path d="M2035 3157 c-4 -10 -5 -21 -1 -24 10 -10 18 4 13 24 -4 17 -4 17 -12 0z"/>
<path d="M2220 3165 c7 -9 15 -13 17 -11 7 7 -7 26 -19 26 -6 0 -6 -6 2 -15z"/>
<path d="M2360 3200 c0 -5 5 -10 10 -10 6 0 10 5 10 10 0 6 -4 10 -10 10 -5 0 -10 -4 -10 -10z"/>
<path d="M2382 3158 c3 -7 13 -15 22 -16 12 -3 17 1 14 10 -3 7 -13 15 -22 16 -12 3 -17 -1 -14 -10z"/>
<path d="M2403 2863 c9 -2 23 -2 30 0 6 3 -1 5 -18 5 -16 0 -22 -2 -12 -5z"/>
<path d="M550 2880 c0 -5 5 -10 11 -10 5 0 7 5 4 10 -3 6 -8 10 -11 10 -2 0 -4 -4 -4 -10z"/>
<path d="M595 2880 c-3 -5 -1 -10 4 -10 6 0 11 5 11 10 0 6 -2 10 -4 10 -3 0 -8 -4 -11 -10z"/>
<path d="M750 2851 c0 -6 5 -13 10 -16 6 -3 10 1 10 9 0 9 -4 16 -10 16 -5 0 -10 -4 -10 -9z"/>
<path d="M930 2865 c0 -8 5 -15 10 -15 6 0 10 7 10 15 0 8 -4 15 -10 15 -5 0 -10 -7 -10 -15z"/>
<path d="M1016 2863 c-11 -11 -6 -23 9 -23 8 0 15 4 15 9 0 13 -16 22 -24 14z"/>
<path d="M930 2805 c0 -8 5 -15 10 -15 6 0 10 7 10 15 0 8 -4 15 -10 15 -5 0 -10 -7 -10 -15z"/>
<path d="M1017 2813 c-12 -11 -8 -23 8 -23 8 0 15 7 15 15 0 16 -12 20 -23 8z"/>
<path d="M1155 2870 c-3 -5 -1 -10 4 -10 6 0 11 5 11 10 0 6 -2 10 -4 10 -3 0 -8 -4 -11 -10z"/>
<path d="M1205 2870 c-3 -5 1 -10 10 -10 9 0 13 5 10 10 -3 6 -8 10 -10 10 -2 0 -7 -4 -10 -10z"/>
<path d="M1153 2833 c4 -3 10 -3 14 0 3 4 0 7 -7 7 -7 0 -10 -3 -7 -7z"/>
<path d="M1205 2830 c4 -6 11 -8 16 -5 14 9 11 15 -7 15 -8 0 -12 -5 -9 -10z"/>
<path d="M1368 2897 c-5 -28 0 -47 14 -47 5 0 6 9 3 20 -4 12 -1 27 5 35 10 12 9 15 -3 15 -8 0 -17 -10 -19 -23z"/>
<path d="M1423 2853 c4 -3 10 -3 14 0 3 4 0 7 -7 7 -7 0 -10 -3 -7 -7z"/>
<path d="M1423 2823 c4 -3 10 -3 14 0 3 4 0 7 -7 7 -7 0 -10 -3 -7 -7z"/>
<path d="M1423 2793 c4 -3 10 -3 14 0 3 4 0 7 -7 7 -7 0 -10 -3 -7 -7z"/>
<path d="M1579 2918 c-9 -24 -8 -68 2 -68 6 0 9 8 6 19 -2 10 0 26 5 35 6 10 5 16 -2 16 -5 0 -10 -1 -11 -2z"/>
<path d="M1630 2820 c0 -7 3 -10 7 -7 3 4 3 10 0 14 -4 3 -7 0 -7 -7z"/>
<path d="M1970 2850 c0 -7 3 -10 7 -7 3 4 3 10 0 14 -4 3 -7 0 -7 -7z"/>
<path d="M2150 2865 c0 -8 5 -15 10 -15 6 0 10 7 10 15 0 8 -4 15 -10 15 -5 0 -10 -7 -10 -15z"/>
<path d="M2236 2863 c-11 -11 -6 -23 9 -23 8 0 15 4 15 9 0 13 -16 22 -24 14z"/>
<path d="M2150 2810 c0 -19 3 -21 12 -12 9 9 9 15 0 24 -9 9 -12 7 -12 -12z"/>
<path d="M2236 2813 c-11 -11 -6 -23 9 -23 8 0 15 4 15 9 0 13 -16 22 -24 14z"/>
<path d="M1165 2450 c3 -5 13 -10 21 -10 8 0 14 5 14 10 0 6 -9 10 -21 10 -11 0 -17 -4 -14 -10z"/>
<path d="M1235 2450 c3 -5 13 -10 21 -10 8 0 14 5 14 10 0 6 -9 10 -21 10 -11 0 -17 -4 -14 -10z"/>
<path d="M1170 2405 c0 -9 5 -15 11 -13 6 2 11 8 11 13 0 5 -5 11 -11 13 -6 2 -11 -4 -11 -13z"/>
<path d="M1240 2405 c0 -9 5 -15 11 -13 6 2 11 8 11 13 0 5 -5 11 -11 13 -6 2 -11 -4 -11 -13z"/>
<path d="M1448 2483 c12 -2 32 -2 45 0 12 2 2 4 -23 4 -25 0 -35 -2 -22 -4z"/>
<path d="M1443 2453 c15 -2 37 -2 50 0 12 2 0 4 -28 4 -27 0 -38 -2 -22 -4z"/>
<path d="M1400 2360 c0 -5 5 -10 10 -10 6 0 10 5 10 10 0 6 -4 10 -10 10 -5 0 -10 -4 -10 -10z"/>
<path d="M1460 2360 c0 -5 5 -10 10 -10 6 0 10 5 10 10 0 6 -4 10 -10 10 -5 0 -10 -4 -10 -10z"/>
<path d="M1510 2360 c0 -5 5 -10 10 -10 6 0 10 5 10 10 0 6 -4 10 -10 10 -5 0 -10 -4 -10 -10z"/>
<path d="M1922 2510 c0 -14 2 -19 5 -12 2 6 2 18 0 25 -3 6 -5 1 -5 -13z"/>
<path d="M2012 2510 c0 -14 2 -19 5 -12 2 6 2 18 0 25 -3 6 -5 1 -5 -13z"/>
<path d="M1970 2510 c0 -7 3 -10 7 -7 3 4 3 10 0 14 -4 3 -7 0 -7 -7z"/>
<path d="M1940 2430 c0 -5 13 -10 29 -10 17 0 33 5 36 10 4 6 -8 10 -29 10 -20 0 -36 -4 -36 -10z"/>
<path d="M1943 2393 c15 -2 39 -2 55 0 15 2 2 4 -28 4 -30 0 -43 -2 -27 -4z"/>
<path d="M1973 2363 c4 -3 10 -3 14 0 3 4 0 7 -7 7 -7 0 -10 -3 -7 -7z"/>
<path d="M1061 545 c-11 -19 -25 -35 -31 -35 -6 0 -10 -55 -10 -154 0 -123 3 -155 14 -159 8 -3 20 -18 28 -34 l13 -28 523 -3 c467 -2 522 -1 522 13 0 9 11 27 25 41 24 24 25 29 25 166 0 135 -1 141 -25 170 -14 16 -25 36 -25 44 0 12 -77 14 -519 14 l-519 0 -21 -35z m1029 -3 c0 -10 11 -28 25 -40 24 -21 25 -26 25 -147 0 -115 -2 -127 -21 -143 -11 -9 -25 -27 -30 -39 l-9 -23 -485 0 -485 0 -9 23 c-5 12 -19 30 -30 40 -20 16 -22 26 -20 148 1 103 4 132 15 136 8 3 21 18 30 34 l15 29 489 0 c467 0 490 -1 490 -18z"/>
<path d="M1098 506 c-27 -34 -28 -39 -28 -151 0 -112 1 -117 28 -151 l27 -34 478 0 c419 0 477 2 477 15 0 8 9 23 20 32 18 16 20 30 20 138 0 108 -2 122 -20 138 -11 9 -20 24 -20 32 0 13 -58 15 -477 15 l-478 0 -27 -34z m268 -25 c23 -10 48 -28 56 -40 l15 -21 24 26 c37 39 77 58 95 43 18 -15 18 -39 -1 -39 -20 0 -85 -32 -85 -42 0 -4 20 -8 45 -8 33 0 45 -4 45 -15 0 -12 -13 -15 -55 -15 -30 0 -55 -4 -55 -9 0 -12 25 -21 57 -21 23 0 25 -3 21 -35 -3 -28 0 -35 17 -37 31 -5 24 -23 -10 -26 -16 -2 -34 -10 -38 -18 -11 -20 -44 -17 -49 4 -4 15 -12 18 -37 14 -17 -2 -31 -10 -31 -18 0 -8 -10 -14 -22 -14 -18 0 -27 11 -44 55 -23 58 -14 73 21 35 21 -24 35 -26 35 -6 0 8 12 16 28 18 20 3 14 6 -25 12 -65 10 -69 26 -8 26 62 0 57 18 -7 22 -67 4 -79 28 -14 28 25 0 46 2 46 4 0 19 -19 40 -51 57 -38 19 -52 39 -26 39 6 0 31 -9 53 -19z m354 3 c49 -14 57 -14 107 1 43 14 57 15 68 5 26 -21 18 -40 -17 -40 -49 0 -63 -12 -47 -38 9 -15 20 -20 35 -16 14 4 23 0 28 -12 7 -18 -7 -33 -34 -35 -8 0 -4 -4 9 -8 30 -8 40 -31 14 -31 -29 0 -23 -44 5 -48 34 -5 15 -22 -24 -22 -24 0 -34 -5 -34 -15 0 -21 -37 -19 -44 3 -5 14 -14 17 -41 14 -21 -3 -35 -10 -35 -18 0 -8 -8 -14 -17 -14 -12 0 -26 17 -40 47 -20 44 -21 49 -6 65 9 10 26 18 37 18 20 1 19 2 -6 25 -30 26 -38 51 -13 41 8 -3 21 -8 28 -11 6 -2 20 7 30 20 18 25 18 25 -15 39 -18 8 -41 17 -50 20 -21 6 -24 26 -5 26 7 0 37 -7 67 -16z"/>
<path d="M1455 290 c12 -13 22 -17 28 -11 13 13 -1 31 -25 31 -21 0 -21 -1 -3 -20z"/>
<path d="M1400 280 c0 -5 7 -10 16 -10 8 0 12 5 9 10 -3 6 -10 10 -16 10 -5 0 -9 -4 -9 -10z"/>
<path d="M1742 397 c-22 -23 -22 -23 -2 -40 24 -20 41 -21 62 -4 14 11 13 15 -11 40 l-27 28 -22 -24z"/>
<path d="M1672 290 c15 -24 24 -25 32 -4 9 23 8 24 -19 24 -23 0 -24 -2 -13 -20z"/>
<path d="M1735 300 c4 -6 11 -8 16 -5 14 9 11 15 -7 15 -8 0 -12 -5 -9 -10z"/>
<path d="M1797 296 c-3 -8 -3 -17 0 -20 13 -12 31 -5 36 14 4 15 0 20 -13 20 -10 0 -20 -6 -23 -14z"/>
</g>
<g id="layer106" fill="#fae0b1" stroke="none">
<path d="M0 1990 l0 -1970 1660 0 1660 0 0 1970 0 1970 -1660 0 -1660 0 0 -1970z m2734 1832 c67 -38 66 -30 66 -602 0 -496 -1 -516 -20 -548 -11 -18 -34 -41 -52 -52 -32 -20 -53 -20 -1132 -20 l-1098 0 -38 21 c-71 40 -70 28 -70 607 0 494 1 518 20 549 24 41 53 56 115 63 28 3 529 4 1114 3 1004 -3 1065 -4 1095 -21z m-1426 -1303 c2 -13 11 -28 20 -35 14 -10 14 -12 -1 -20 -9 -5 -17 -26 -19 -49 -3 -37 -5 -40 -38 -44 l-35 -5 44 -5 c25 -3 46 -12 49 -18 3 -10 -24 -13 -113 -13 -89 0 -116 3 -113 13 3 6 24 15 49 18 l44 5 -35 5 c-33 4 -35 6 -38 47 -2 23 -7 42 -13 42 -5 0 -9 7 -9 15 0 8 5 15 10 15 6 0 10 16 10 35 0 31 3 35 25 35 22 0 25 -4 25 -35 0 -35 0 -35 45 -35 38 0 45 3 45 20 0 13 -7 20 -20 20 -27 0 -25 19 3 29 28 12 61 -8 65 -40z m117 27 c19 -8 35 -19 35 -25 0 -5 20 1 46 15 25 13 51 24 58 24 21 0 27 -28 10 -38 -21 -11 -26 -129 -6 -137 16 -6 15 -40 -2 -54 -9 -8 -47 -11 -107 -9 l-94 3 -3 33 c-2 18 1 32 7 32 7 0 11 24 11 59 0 38 4 61 13 64 7 2 1 10 -15 17 -28 13 -29 30 -2 30 8 0 30 -7 49 -14z m665 -5 c0 -6 -4 -13 -10 -16 -5 -3 -10 -17 -10 -30 0 -12 -6 -25 -14 -28 -9 -4 -12 -15 -8 -32 3 -16 10 -24 17 -21 12 4 25 -13 25 -34 0 -5 -14 -11 -30 -15 -17 -4 -44 -18 -61 -32 l-30 -26 -32 30 c-18 17 -42 36 -54 42 -26 13 -32 47 -8 37 21 -8 31 22 17 45 -7 10 -12 28 -12 38 0 11 -4 23 -10 26 -29 18 0 25 105 25 65 0 115 -4 115 -9z m-255 -111 c0 -12 -20 -16 -112 -18 -108 -3 -113 -2 -113 18 0 20 5 21 113 18 92 -2 112 -6 112 -18z m-505 -195 c0 -2 -5 -16 -11 -32 -35 -91 -42 -277 -18 -440 7 -48 13 -96 12 -105 0 -10 4 -18 8 -18 5 0 9 -11 9 -24 0 -13 7 -43 15 -66 8 -23 13 -46 10 -50 -3 -5 -1 -11 5 -15 6 -4 8 -11 5 -16 -4 -5 -2 -9 4 -9 6 0 13 -16 17 -36 3 -19 27 -75 52 -122 24 -48 44 -88 43 -90 -1 -1 3 -8 9 -15 43 -53 60 -76 60 -82 0 -4 11 -16 25 -27 44 -34 29 -46 -70 -54 -33 -3 -65 -7 -72 -9 -13 -4 -129 13 -153 23 -8 3 -20 6 -26 7 -25 1 -102 41 -134 69 -19 17 -28 22 -20 11 l15 -20 -25 20 c-53 42 -150 146 -150 160 0 8 -4 15 -10 15 -5 0 -10 7 -10 15 0 8 -5 15 -11 15 -5 0 -7 5 -4 10 3 6 1 10 -5 10 -6 0 -8 5 -5 10 3 6 2 10 -3 10 -9 0 -26 48 -22 59 1 2 -3 7 -9 11 -10 6 -43 238 -36 250 2 3 6 28 9 55 6 56 53 188 84 237 27 42 153 168 168 168 7 0 14 5 16 11 2 5 12 11 21 13 10 1 22 7 25 13 6 8 31 20 62 28 3 1 16 6 30 12 47 19 55 20 73 11 9 -5 17 -11 17 -13z m498 -89 c5 -3 24 -8 42 -11 80 -14 252 -122 270 -170 5 -14 17 -28 26 -32 8 -3 20 -15 25 -27 5 -11 18 -34 29 -51 11 -16 22 -34 25 -40 6 -13 28 -68 30 -77 2 -5 4 -10 5 -13 11 -21 22 -124 22 -200 1 -83 -3 -112 -20 -156 -6 -15 -9 -29 -6 -31 2 -3 -5 -25 -17 -49 -35 -75 -50 -99 -59 -99 -5 0 -11 -8 -15 -19 -11 -37 -155 -171 -183 -171 -5 0 -15 -7 -22 -15 -7 -9 -15 -13 -18 -10 -3 3 -15 -1 -27 -9 -28 -19 -86 -33 -152 -39 -57 -5 -58 -5 -44 21 6 9 17 42 26 72 9 30 19 62 22 70 6 15 8 23 16 85 2 17 7 37 10 45 3 8 6 33 5 55 -1 22 2 68 7 102 4 34 4 70 0 80 -4 10 -8 45 -9 78 -1 33 -5 65 -9 72 -4 6 -9 29 -11 50 -3 21 -8 49 -11 63 -4 14 -7 37 -8 53 0 15 -4 27 -9 27 -4 0 -5 7 -2 15 4 8 2 15 -4 15 -5 0 -12 18 -16 40 -3 22 -10 40 -14 40 -4 0 -17 26 -27 58 -11 31 -37 83 -58 114 -22 31 -36 61 -33 67 7 11 196 8 214 -3z m-21 -573 c-4 -3 -7 0 -7 7 0 7 3 10 7 7 3 -4 3 -10 0 -14z m333 -998 c0 -14 9 -30 20 -37 19 -12 20 -24 20 -183 0 -157 -1 -171 -19 -182 -11 -7 -21 -23 -23 -35 l-3 -23 -536 -3 -537 -2 -10 29 c-6 16 -20 34 -31 41 -20 10 -21 19 -21 175 0 156 1 165 21 175 11 7 25 25 31 41 l10 29 539 0 539 0 0 -25z"/>
<path d="M480 3797 c-14 -7 -33 -28 -43 -47 -16 -32 -17 -74 -15 -542 l3 -508 28 -27 27 -28 1083 -5 c595 -3 1097 -2 1116 2 19 4 46 18 60 33 l26 25 0 526 0 526 -33 29 -32 29 -1098 0 c-857 0 -1102 -3 -1122 -13z m168 -226 c2 -56 7 -78 20 -87 15 -11 15 -13 1 -19 -25 -10 -184 -1 -184 10 0 6 28 11 63 13 l62 3 0 60 c0 52 -3 62 -20 66 -39 10 -19 35 25 31 l30 -3 3 -74z m100 46 c3 -27 21 -34 56 -21 20 8 21 24 1 24 -8 0 -15 7 -15 15 0 10 10 15 30 15 24 0 31 -5 36 -27 4 -16 12 -31 18 -35 8 -6 8 -10 0 -15 -13 -9 -24 -83 -12 -83 4 0 8 -7 8 -15 0 -12 -17 -15 -90 -15 -55 0 -90 4 -90 10 0 6 6 13 13 16 16 6 10 75 -7 87 -8 6 -8 10 2 14 6 2 12 18 12 35 0 39 34 36 38 -5z m243 16 c14 -11 18 -11 29 2 16 19 44 19 60 0 15 -18 3 -58 -16 -51 -8 3 -14 1 -14 -4 0 -6 5 -10 10 -10 6 0 10 -16 10 -35 0 -19 -4 -35 -9 -35 -4 0 -6 -11 -3 -25 3 -18 0 -25 -12 -25 -9 0 -16 7 -16 15 0 8 -4 15 -9 15 -5 0 -14 -7 -21 -15 -18 -21 -33 -19 -27 5 3 11 2 20 -2 20 -5 0 -16 -9 -26 -20 -10 -11 -24 -20 -32 -20 -10 0 -12 6 -8 20 3 11 3 20 -2 20 -6 0 -11 129 -5 152 3 12 77 5 93 -9z m398 -9 l31 -26 21 26 c23 30 37 33 46 10 4 -10 -4 -24 -23 -39 l-28 -22 27 -33 c34 -39 22 -65 -25 -55 -24 6 -28 3 -28 -14 0 -32 -36 -27 -44 5 -6 24 -8 25 -25 10 -21 -19 -41 -21 -41 -3 1 16 22 43 39 48 10 4 7 13 -13 36 -31 36 -32 51 -8 69 25 19 37 17 71 -12z m291 -39 c8 -90 3 -109 -32 -124 -18 -8 -33 -10 -37 -4 -13 20 -44 23 -63 7 -17 -16 -31 -13 -34 7 -1 5 -2 10 -3 12 -4 7 -9 152 -5 158 2 4 41 7 87 6 l82 -2 5 -60z m90 25 c4 -27 7 -31 13 -17 4 10 11 16 16 12 5 -3 11 5 13 17 5 34 38 37 38 4 0 -14 3 -25 8 -25 27 5 32 -4 32 -57 0 -47 -3 -57 -20 -61 -11 -3 -20 -12 -20 -19 0 -18 -26 -18 -37 -1 -15 25 -45 29 -60 7 -18 -25 -33 -26 -33 -2 0 10 -6 24 -12 30 -10 10 -8 14 10 18 l22 6 -20 28 c-24 34 -25 40 -5 40 10 0 15 10 15 31 0 45 33 36 40 -11z m241 5 c23 -39 39 -45 39 -15 0 12 -7 20 -16 20 -24 0 -11 25 16 28 33 5 40 -13 40 -105 0 -94 4 -91 -104 -83 l-71 5 -3 69 c-3 77 5 94 36 75 24 -15 42 -5 24 13 -16 16 -15 28 3 28 9 0 25 -16 36 -35z m158 -15 l5 -45 5 45 6 45 51 1 52 1 4 -71 c6 -91 -6 -120 -44 -112 -16 3 -28 1 -28 -5 0 -21 -34 -3 -41 21 l-7 25 -1 -27 c-1 -38 -26 -36 -45 4 -12 22 -13 34 -5 38 8 5 7 14 -3 30 -10 18 -10 24 0 27 15 6 16 40 0 45 -20 7 2 29 25 26 18 -2 23 -11 26 -48z m261 1 l5 -44 17 36 c10 21 22 37 28 37 21 0 21 -30 0 -60 -18 -25 -19 -30 -6 -30 9 0 16 -7 16 -15 0 -12 -16 -15 -85 -15 -69 0 -85 3 -85 15 0 8 7 15 14 15 12 0 13 6 5 30 -6 17 -15 30 -20 30 -5 0 -9 7 -9 15 0 24 16 18 49 -20 l31 -36 0 27 c0 17 -6 28 -20 31 -40 10 -16 34 30 30 22 -2 26 -8 30 -46z m-1881 -8 c6 -10 11 -12 11 -5 0 6 9 12 20 12 17 0 20 -7 20 -51 l0 -50 -47 3 c-48 3 -48 3 -51 41 -5 56 25 87 47 50z m729 -50 c-3 -16 -15 -18 -88 -18 -73 0 -85 2 -88 18 -3 15 6 17 88 17 82 0 91 -2 88 -17z m1200 -65 c-3 -8 -29 -14 -71 -16 -55 -2 -67 0 -67 13 0 12 14 15 71 15 52 0 70 -3 67 -12z m-1813 -268 c0 -102 2 -100 -106 -98 l-55 1 -14 45 c-10 34 -10 47 -2 50 7 2 12 23 12 47 0 24 4 45 10 47 5 2 42 2 82 0 l73 -3 0 -89z m146 90 c46 0 59 -3 59 -15 0 -8 -9 -15 -20 -15 -27 0 -27 -36 1 -43 22 -6 18 -27 -5 -27 -8 0 -16 -9 -19 -20 -4 -17 0 -20 24 -20 16 0 29 -4 29 -9 0 -12 -25 -21 -57 -21 -13 0 -32 -7 -41 -16 -15 -15 -17 -15 -31 2 -9 11 -25 19 -35 19 -27 0 -32 23 -6 27 22 3 22 3 -4 41 -21 31 -23 39 -11 43 8 4 15 16 15 28 0 28 10 38 28 31 7 -3 40 -5 73 -5z m147 -18 c2 -12 10 -22 18 -22 8 0 14 -4 14 -10 0 -5 4 -10 9 -10 5 0 7 9 4 20 -6 22 14 53 28 44 5 -3 9 -18 9 -33 0 -20 6 -30 20 -34 11 -3 20 -10 20 -16 0 -6 -9 -11 -20 -11 -11 0 -20 -4 -20 -10 0 -5 7 -10 15 -10 27 0 27 -27 0 -54 -26 -26 -55 -35 -55 -16 0 6 -9 10 -20 10 -11 0 -20 -4 -20 -10 0 -5 -9 -10 -20 -10 -11 0 -20 5 -20 10 0 6 -6 10 -13 10 -10 0 -14 18 -14 65 0 48 4 65 14 65 7 0 13 8 13 18 0 38 33 41 38 4z m276 14 c6 16 8 16 25 -2 20 -22 24 -113 6 -126 -6 -5 -4 -12 5 -18 19 -12 7 -23 -39 -39 -25 -8 -37 -8 -41 0 -4 6 -26 13 -49 16 l-41 6 0 67 c0 73 5 86 28 67 13 -10 14 -8 8 11 -5 16 -3 22 8 22 8 0 18 -5 22 -11 5 -8 10 -6 16 5 9 16 11 16 28 1 16 -15 18 -15 24 1z m244 2 c15 -15 16 -55 1 -64 -6 -3 -15 0 -20 7 -14 23 -10 -4 6 -31 9 -18 10 -29 3 -37 -8 -10 -6 -13 6 -13 21 0 20 -13 -1 -33 -29 -25 -83 -26 -83 -2 0 9 -6 15 -12 14 -7 -1 -28 -1 -45 0 -37 1 -46 20 -10 22 16 1 18 2 5 6 -12 3 -18 14 -18 32 0 16 -3 43 -7 61 -6 33 -6 33 25 27 20 -4 32 -2 35 6 3 9 10 9 31 -2 24 -13 28 -13 43 2 20 20 25 21 41 5z m97 2 c8 -13 48 -13 62 1 20 20 33 -1 33 -51 0 -42 -3 -49 -22 -53 -17 -3 -14 -5 10 -6 31 -1 47 -21 17 -21 -12 0 -14 -4 -5 -19 13 -24 0 -34 -34 -25 -17 4 -27 1 -35 -13 -10 -17 -12 -17 -25 0 -7 9 -20 17 -29 17 -19 0 -33 20 -15 21 7 1 16 1 21 0 4 0 7 4 7 9 0 6 -13 10 -30 10 -41 0 -38 20 3 21 l32 0 -32 16 c-38 19 -43 33 -12 33 15 0 20 5 18 23 -5 36 20 62 36 37z m196 -31 c4 -19 7 -28 8 -21 0 6 7 12 15 12 8 0 16 10 18 23 2 12 10 22 18 22 8 0 16 -10 18 -22 2 -15 10 -23 23 -23 17 0 19 -7 19 -60 0 -46 -3 -60 -15 -60 -8 0 -19 -9 -25 -20 -6 -11 -15 -20 -21 -20 -6 0 -13 9 -16 20 -6 24 -48 28 -57 5 -8 -23 -30 -18 -43 11 -10 22 -9 26 8 33 20 7 20 7 0 33 -25 31 -26 38 -6 38 10 0 15 10 15 28 0 55 31 55 41 1z m307 29 c15 -15 16 -174 2 -183 -6 -4 -46 -3 -90 1 l-80 7 0 73 c0 75 13 101 35 71 13 -18 35 -23 35 -8 0 6 -4 13 -10 16 -16 10 -11 25 8 25 10 0 26 -13 35 -30 19 -32 37 -39 37 -15 0 8 -7 15 -15 15 -18 0 -20 26 -2 33 21 9 32 8 45 -5z m110 -21 c14 -14 26 -18 30 -11 17 25 56 43 69 32 22 -18 15 -35 -19 -44 l-33 -8 33 -3 c43 -5 37 -27 -9 -32 -32 -4 -32 -4 -9 -10 19 -5 24 -13 22 -29 -2 -15 2 -22 12 -22 9 0 16 -4 16 -10 0 -5 -9 -10 -21 -10 -11 0 -28 -7 -37 -16 -14 -15 -17 -15 -27 0 -15 20 -41 21 -49 1 -8 -23 -31 -8 -45 31 -9 26 -10 38 -1 49 7 9 8 15 0 20 -20 12 -10 25 20 25 17 0 30 4 30 9 0 5 -13 14 -30 21 -16 7 -30 16 -30 20 0 27 42 20 78 -13z m196 -18 c25 -30 26 -30 26 -7 0 31 18 48 50 48 34 0 48 -15 42 -46 -6 -31 -22 -42 -22 -15 0 12 -7 21 -15 21 -24 0 -17 -36 11 -55 20 -13 23 -19 14 -30 -6 -8 -18 -11 -26 -8 -8 3 -14 0 -14 -6 0 -6 12 -16 26 -21 45 -17 16 -29 -71 -29 -68 0 -85 3 -85 15 0 7 7 14 15 14 20 0 19 8 -4 52 -21 37 -19 50 5 41 21 -8 17 20 -6 40 -25 21 -18 42 10 27 10 -5 30 -23 44 -41z m248 -33 c14 -31 4 -56 -21 -56 -25 0 -36 17 -22 34 6 7 9 21 5 30 -10 27 25 19 38 -8z m-2034 -295 c3 -20 8 -22 37 -17 49 9 53 -16 8 -50 -32 -25 -34 -28 -17 -34 10 -4 25 -5 32 -3 6 3 12 -2 12 -11 0 -12 -10 -16 -35 -16 -24 0 -35 -5 -35 -14 0 -26 -21 -29 -41 -7 -11 12 -31 21 -45 21 -31 0 -27 24 4 28 30 5 28 15 -10 58 l-32 36 42 -7 c41 -7 42 -6 42 20 0 34 33 31 38 -4z m153 -12 c4 -19 7 -28 8 -21 0 6 10 12 21 12 15 0 20 7 20 26 0 33 33 30 38 -4 2 -12 10 -22 18 -22 11 0 14 -15 14 -60 0 -45 -4 -60 -14 -60 -8 0 -16 -7 -20 -15 -7 -19 -36 -20 -36 -1 0 22 -37 26 -56 5 -23 -26 -47 -25 -39 1 4 12 2 20 -5 20 -6 0 -10 6 -7 13 2 6 10 11 16 10 16 -4 14 22 -4 37 -17 14 -20 40 -5 40 6 0 10 11 10 23 0 50 32 47 41 -4z m236 19 c13 -12 23 -27 23 -35 0 -7 7 -13 15 -13 23 0 18 30 -7 39 -23 9 -23 9 4 21 46 22 58 2 58 -96 0 -60 -4 -84 -12 -85 -7 -1 -24 -3 -38 -5 -14 -1 -32 0 -40 3 -8 3 -33 6 -55 7 l-40 1 -2 65 c-3 79 7 101 37 83 30 -19 43 -17 30 6 -20 38 -8 42 27 9z m163 -9 c4 -18 13 -25 38 -27 24 -2 32 1 32 12 0 9 -7 16 -16 16 -9 0 -14 6 -11 13 2 6 17 12 33 12 24 0 30 -5 32 -27 2 -16 8 -28 13 -28 5 0 9 -7 9 -15 0 -8 -4 -15 -10 -15 -5 0 -10 -18 -10 -40 0 -22 5 -40 11 -40 6 0 9 -5 7 -11 -5 -15 -167 -17 -180 -2 -8 10 -6 13 5 13 13 0 15 8 10 38 -3 20 -10 42 -15 49 -5 7 -5 14 2 18 5 3 10 16 10 29 0 43 30 47 40 5z m515 11 c25 -10 32 -24 16 -34 -5 -3 -6 -35 -3 -71 2 -36 1 -66 -4 -66 -40 -6 -71 -4 -83 5 -11 8 -15 8 -18 -1 -6 -18 -32 -16 -39 2 -4 8 -13 15 -21 15 -13 0 -13 3 -2 16 10 12 10 20 1 35 -15 24 -7 40 16 32 13 -5 11 0 -7 20 -25 27 -23 64 3 54 8 -3 27 -2 43 3 29 9 55 7 98 -10z m303 -12 c3 -21 7 -24 28 -20 17 3 24 11 24 28 0 15 6 24 15 24 9 0 15 -9 15 -21 0 -12 8 -23 20 -26 17 -5 20 -14 20 -64 0 -43 -4 -59 -14 -59 -7 0 -21 -10 -29 -22 l-16 -23 -7 22 c-8 29 -51 37 -65 12 -11 -22 -44 -26 -36 -5 3 7 0 19 -6 25 -9 10 -8 15 6 25 16 13 16 15 -4 40 -19 24 -18 31 4 27 4 0 7 12 7 27 0 49 32 57 38 10z m247 -6 c23 -36 35 -40 35 -12 0 11 -7 20 -15 20 -8 0 -15 4 -15 10 0 12 45 24 59 15 17 -10 14 -184 -3 -191 -7 -3 -46 -1 -87 3 l-74 8 -3 73 c-2 61 0 73 14 79 10 4 19 2 22 -5 4 -14 32 -16 32 -3 0 6 -5 13 -10 16 -13 8 -2 27 13 22 7 -2 21 -18 32 -35z m170 28 c8 -13 48 -13 62 1 20 20 33 -1 33 -50 0 -26 5 -52 12 -59 8 -8 8 -15 -3 -28 -8 -9 -12 -26 -11 -37 4 -18 0 -19 -50 -12 -29 4 -62 8 -73 9 -11 0 -22 11 -26 26 -11 41 -10 50 9 50 14 1 14 3 -5 19 -29 24 -30 45 -3 36 16 -5 20 -2 20 18 0 34 21 50 35 27z m246 -51 c3 -30 7 -49 8 -44 4 23 40 55 55 49 26 -10 19 -28 -23 -60 -44 -32 -44 -44 0 -44 19 0 29 -5 29 -15 0 -12 -17 -15 -91 -15 -68 0 -90 3 -87 13 3 6 19 13 37 15 l32 3 -17 27 c-10 15 -28 35 -42 46 -16 13 -20 22 -13 29 8 8 20 4 41 -11 l30 -23 0 39 c0 75 33 68 41 -9z m-1150 34 c10 -10 9 -17 -5 -32 -11 -12 -14 -21 -7 -26 16 -9 14 -105 -1 -106 -7 -1 -22 -2 -33 -3 -11 -1 -30 4 -42 12 -20 11 -23 10 -23 -3 0 -21 -20 -18 -49 6 -19 15 -22 22 -12 28 11 7 10 13 -3 33 -17 26 -13 40 10 31 19 -7 18 6 -2 28 -31 35 -12 46 75 45 48 -1 85 -6 92 -13z m350 -49 c11 -14 10 -18 -6 -31 -58 -42 -81 -34 -45 17 24 34 32 36 51 14z"/>
<path d="M750 3560 c0 -7 3 -10 7 -7 3 4 3 10 0 14 -4 3 -7 0 -7 -7z"/>
<path d="M810 3560 c0 -7 3 -10 7 -7 3 4 3 10 0 14 -4 3 -7 0 -7 -7z"/>
<path d="M967 3581 c-4 -17 -3 -21 5 -13 5 5 8 16 6 23 -3 8 -7 3 -11 -10z"/>
<path d="M1005 3530 c3 -5 13 -10 21 -10 8 0 14 5 14 10 0 6 -9 10 -21 10 -11 0 -17 -4 -14 -10z"/>
<path d="M1355 3585 c22 -53 40 -70 31 -30 -4 17 -16 39 -27 50 -20 20 -20 20 -4 -20z"/>
<path d="M1430 3520 c0 -7 3 -10 7 -7 3 4 3 10 0 14 -4 3 -7 0 -7 -7z"/>
<path d="M1950 3560 c0 -7 3 -10 7 -7 3 4 3 10 0 14 -4 3 -7 0 -7 -7z"/>
<path d="M2035 3551 c-3 -5 -1 -12 5 -16 5 -3 10 1 10 9 0 18 -6 21 -15 7z"/>
<path d="M1950 3500 c0 -7 3 -10 7 -7 3 4 3 10 0 14 -4 3 -7 0 -7 -7z"/>
<path d="M2035 3501 c-3 -5 -1 -12 5 -16 5 -3 10 1 10 9 0 18 -6 21 -15 7z"/>
<path d="M2233 3603 c4 -3 10 -3 14 0 3 4 0 7 -7 7 -7 0 -10 -3 -7 -7z"/>
<path d="M2233 3573 c4 -3 10 -3 14 0 3 4 0 7 -7 7 -7 0 -10 -3 -7 -7z"/>
<path d="M2230 3506 c0 -2 9 -6 20 -9 11 -3 20 -1 20 4 0 5 -9 9 -20 9 -11 0 -20 -2 -20 -4z"/>
<path d="M545 3551 c-3 -5 -1 -12 5 -16 5 -3 10 1 10 9 0 18 -6 21 -15 7z"/>
<path d="M542 3220 c0 -19 2 -27 5 -17 2 9 2 25 0 35 -3 9 -5 1 -5 -18z"/>
<path d="M750 3250 c0 -13 7 -20 20 -20 13 0 20 7 20 20 0 13 -7 20 -20 20 -13 0 -20 -7 -20 -20z"/>
<path d="M760 3191 c0 -5 7 -14 15 -21 13 -10 15 -9 15 9 0 12 -6 21 -15 21 -8 0 -15 -4 -15 -9z"/>
<path d="M990 3200 c0 -7 3 -10 7 -7 3 4 3 10 0 14 -4 3 -7 0 -7 -7z"/>
<path d="M1023 3163 c4 -3 10 -3 14 0 3 4 0 7 -7 7 -7 0 -10 -3 -7 -7z"/>
<path d="M1350 3200 c0 -7 3 -10 7 -7 3 4 3 10 0 14 -4 3 -7 0 -7 -7z"/>
<path d="M1373 3163 c4 -3 10 -3 14 0 3 4 0 7 -7 7 -7 0 -10 -3 -7 -7z"/>
<path d="M1433 3163 c4 -3 10 -3 14 0 3 4 0 7 -7 7 -7 0 -10 -3 -7 -7z"/>
<path d="M1593 3263 c9 -2 23 -2 30 0 6 3 -1 5 -18 5 -16 0 -22 -2 -12 -5z"/>
<path d="M1770 3190 c0 -7 3 -10 7 -7 3 4 3 10 0 14 -4 3 -7 0 -7 -7z"/>
<path d="M1950 3210 c0 -7 3 -10 7 -7 3 4 3 10 0 14 -4 3 -7 0 -7 -7z"/>
<path d="M2036 3201 c-4 -7 -5 -15 -2 -18 9 -9 19 4 14 18 -4 11 -6 11 -12 0z"/>
<path d="M2030 3150 c0 -5 5 -10 10 -10 6 0 10 5 10 10 0 6 -4 10 -10 10 -5 0 -10 -4 -10 -10z"/>
<path d="M2130 3186 c0 -2 7 -9 15 -16 12 -10 15 -10 15 4 0 9 -7 16 -15 16 -8 0 -15 -2 -15 -4z"/>
<path d="M2220 3170 c0 -5 5 -10 11 -10 5 0 7 5 4 10 -3 6 -8 10 -11 10 -2 0 -4 -4 -4 -10z"/>
<path d="M2396 3161 c-4 -7 -5 -15 -2 -18 9 -9 19 4 14 18 -4 11 -6 11 -12 0z"/>
<path d="M594 2878 c-4 -7 -3 -8 4 -4 7 4 12 9 12 12 0 8 -9 4 -16 -8z"/>
<path d="M553 2873 c4 -3 10 -3 14 0 3 4 0 7 -7 7 -7 0 -10 -3 -7 -7z"/>
<path d="M933 2865 c0 -8 4 -15 9 -15 4 0 8 7 8 15 0 8 -4 15 -8 15 -5 0 -9 -7 -9 -15z"/>
<path d="M1020 2850 c0 -5 5 -10 10 -10 6 0 10 5 10 10 0 6 -4 10 -10 10 -5 0 -10 -4 -10 -10z"/>
<path d="M1020 2800 c0 -5 5 -10 10 -10 6 0 10 5 10 10 0 6 -4 10 -10 10 -5 0 -10 -4 -10 -10z"/>
<path d="M1153 2863 c4 -3 10 -3 14 0 3 4 0 7 -7 7 -7 0 -10 -3 -7 -7z"/>
<path d="M1580 2910 c0 -7 3 -10 7 -7 3 4 3 10 0 14 -4 3 -7 0 -7 -7z"/>
<path d="M1625 2890 c-3 -5 -1 -10 4 -10 6 0 11 5 11 10 0 6 -2 10 -4 10 -3 0 -8 -4 -11 -10z"/>
<path d="M1575 2860 c3 -5 8 -10 11 -10 2 0 4 5 4 10 0 6 -5 10 -11 10 -5 0 -7 -4 -4 -10z"/>
<path d="M2151 2864 c0 -11 3 -14 6 -6 3 7 2 16 -1 19 -3 4 -6 -2 -5 -13z"/>
<path d="M2230 2850 c0 -5 7 -10 16 -10 8 0 12 5 9 10 -3 6 -10 10 -16 10 -5 0 -9 -4 -9 -10z"/>
<path d="M2151 2804 c0 -11 3 -14 6 -6 3 7 2 16 -1 19 -3 4 -6 -2 -5 -13z"/>
<path d="M2235 2800 c3 -5 8 -10 11 -10 2 0 4 5 4 10 0 6 -5 10 -11 10 -5 0 -7 -4 -4 -10z"/>
<path d="M1420 2890 c0 -5 5 -10 11 -10 5 0 7 5 4 10 -3 6 -8 10 -11 10 -2 0 -4 -4 -4 -10z"/>
<path d="M1370 2860 c0 -7 3 -10 7 -7 3 4 3 10 0 14 -4 3 -7 0 -7 -7z"/>
<path d="M1170 2450 c0 -5 5 -10 10 -10 6 0 10 5 10 10 0 6 -4 10 -10 10 -5 0 -10 -4 -10 -10z"/>
<path d="M1240 2450 c0 -5 5 -10 10 -10 6 0 10 5 10 10 0 6 -4 10 -10 10 -5 0 -10 -4 -10 -10z"/>
<path d="M1173 2403 c4 -3 10 -3 14 0 3 4 0 7 -7 7 -7 0 -10 -3 -7 -7z"/>
<path d="M1243 2403 c4 -3 10 -3 14 0 3 4 0 7 -7 7 -7 0 -10 -3 -7 -7z"/>
<path d="M1520 2360 c0 -7 3 -10 7 -7 3 4 3 10 0 14 -4 3 -7 0 -7 -7z"/>
<path d="M1920 2510 c0 -7 3 -10 7 -7 3 4 3 10 0 14 -4 3 -7 0 -7 -7z"/>
<path d="M1963 2433 c9 -2 23 -2 30 0 6 3 -1 5 -18 5 -16 0 -22 -2 -12 -5z"/>
<path d="M1075 561 c-3 -10 -14 -26 -25 -36 -18 -17 -20 -31 -20 -170 0 -139 2 -153 20 -170 11 -10 22 -26 25 -36 6 -19 26 -19 521 -19 l515 1 10 29 c6 15 17 31 25 34 11 4 14 35 14 161 0 102 -4 155 -11 155 -5 0 -17 16 -25 35 l-14 35 -514 0 c-494 0 -515 -1 -521 -19z m1015 -21 c0 -12 10 -25 25 -32 25 -11 25 -11 25 -154 0 -134 -1 -143 -20 -149 -11 -3 -23 -17 -26 -31 l-6 -24 -494 0 -494 0 -10 25 c-5 14 -17 28 -25 31 -12 5 -15 31 -15 149 0 135 1 144 20 150 11 3 20 14 20 24 0 10 3 21 7 24 3 4 228 7 500 7 488 0 493 0 493 -20z"/>
<path d="M1113 522 c-3 -9 -12 -24 -20 -33 -10 -12 -14 -49 -15 -132 -1 -103 1 -118 21 -142 11 -15 21 -32 21 -36 0 -5 214 -9 475 -9 l475 0 9 23 c5 13 16 29 25 36 24 20 24 232 0 252 -9 7 -20 23 -25 36 l-8 23 -476 -1 c-436 -1 -477 -2 -482 -17z m267 -43 c19 -12 40 -28 45 -36 10 -13 16 -10 42 15 40 40 81 51 99 27 17 -23 2 -45 -30 -45 -21 -1 -56 -21 -56 -34 0 -3 20 -6 45 -6 33 0 45 -4 45 -15 0 -12 -13 -15 -55 -15 -64 0 -73 -17 -15 -26 43 -7 45 -10 30 -48 -9 -24 -7 -26 15 -26 16 0 25 -6 25 -15 0 -10 -11 -15 -35 -15 -23 0 -35 -5 -35 -14 0 -13 -20 -26 -40 -26 -4 0 -10 9 -13 20 -6 23 -57 29 -57 6 0 -13 -20 -26 -41 -26 -6 0 -17 17 -25 38 -8 20 -20 47 -26 59 -15 31 10 53 61 53 59 0 51 18 -9 22 -64 4 -70 22 -7 26 26 2 47 7 47 11 0 12 -30 36 -68 55 -18 9 -30 21 -27 26 10 16 48 11 85 -11z m353 6 c40 -13 49 -13 82 1 50 21 89 15 93 -13 3 -19 -3 -23 -42 -28 -41 -7 -44 -9 -33 -26 8 -14 19 -18 34 -14 16 4 23 0 28 -16 8 -23 8 -22 -20 -37 -19 -11 -19 -11 3 -12 23 0 31 -25 10 -32 -20 -7 -18 -38 3 -38 28 0 23 -29 -6 -36 -14 -4 -28 -4 -31 -1 -3 3 -14 -3 -25 -14 -24 -24 -36 -24 -44 0 -6 21 -65 24 -65 4 0 -7 -4 -13 -9 -13 -5 0 -16 -2 -23 -5 -10 -4 -22 11 -37 44 -26 59 -18 88 26 93 l28 4 -32 19 c-45 27 -44 49 1 41 29 -6 37 -3 46 14 11 21 5 26 -72 53 -10 4 -18 11 -18 17 0 15 52 12 103 -5z"/>
<path d="M1338 303 c21 -28 28 -29 35 -4 4 15 -2 20 -23 23 -28 4 -28 4 -12 -19z"/>
<path d="M1454 294 c9 -8 21 -12 27 -8 13 7 -7 24 -29 24 -10 0 -10 -4 2 -16z"/>
<path d="M1405 280 c-3 -5 -1 -10 4 -10 6 0 11 5 11 10 0 6 -2 10 -4 10 -3 0 -8 -4 -11 -10z"/>
<path d="M1747 396 c-16 -12 -16 -17 -5 -35 14 -24 40 -27 56 -8 7 8 5 18 -8 35 -21 26 -20 25 -43 8z"/>
<path d="M1670 301 c0 -5 7 -14 15 -21 13 -10 15 -9 15 9 0 12 -6 21 -15 21 -8 0 -15 -4 -15 -9z"/>
<path d="M1805 300 c-7 -12 2 -30 16 -30 12 0 12 27 0 35 -5 3 -12 1 -16 -5z"/>
</g>


</svg>